<?xml version="1.0" encoding="utf-8"?>
<!-- Generator: Adobe Illustrator 21.0.2, SVG Export Plug-In . SVG Version: 6.00 Build 0)  -->
<svg xmlns="http://www.w3.org/2000/svg" xmlns:xlink="http://www.w3.org/1999/xlink" version="1.1" id="Layer_1" x="0px" y="0px" viewBox="0 0 48 48" style="enable-background:new 0 0 48 48;" xml:space="preserve">
<g id="surface1">
	<path style="fill:#37474F;" d="M29,19c-0.4,0-0.7-0.2-0.9-0.6c-0.2-0.5,0-1.1,0.4-1.3l5.4-2.7V8.5l4.4-3.3c0.4-0.3,1.1-0.2,1.4,0.2   c0.3,0.4,0.2,1.1-0.2,1.4L36,9.5v6.1l-6.6,3.3C29.3,19,29.2,19,29,19z"/>
	<path style="fill:#37474F;" d="M19,19c-0.1,0-0.3,0-0.4-0.1L12,15.6V9.5L8.4,6.8C8,6.5,7.9,5.8,8.2,5.4c0.3-0.4,1-0.5,1.4-0.2   L14,8.5v5.9l5.4,2.7c0.5,0.2,0.7,0.8,0.4,1.3C19.7,18.8,19.4,19,19,19z"/>
	<path style="fill:#37474F;" d="M38,42c-0.2,0-0.3,0-0.4-0.1l-6.5-3.2l-1-7.9l-2.4-0.8c-0.5-0.2-0.8-0.7-0.6-1.3   c0.2-0.5,0.7-0.8,1.3-0.6l3.6,1.2l1,8.1l5.5,2.8c0.5,0.2,0.7,0.8,0.4,1.3C38.7,41.8,38.4,42,38,42z"/>
	<path style="fill:#37474F;" d="M41,35c-0.2,0-0.3,0-0.4-0.1l-4.5-2.2l-1-8.9l-5.4-1.8c-0.5-0.2-0.8-0.7-0.6-1.3   c0.2-0.5,0.7-0.8,1.3-0.6l6.6,2.2l1,9.1l3.5,1.8c0.5,0.2,0.7,0.8,0.4,1.3C41.7,34.8,41.4,35,41,35z"/>
	<path style="fill:#37474F;" d="M10,42c-0.4,0-0.7-0.2-0.9-0.6c-0.2-0.5,0-1.1,0.4-1.3l5.5-2.8l1-8.1l3.6-1.2   c0.5-0.2,1.1,0.1,1.3,0.6c0.2,0.5-0.1,1.1-0.6,1.3l-2.4,0.8l-1,7.9l-6.5,3.2C10.3,42,10.2,42,10,42z"/>
	<path style="fill:#37474F;" d="M7,35c-0.4,0-0.7-0.2-0.9-0.6c-0.2-0.5,0-1.1,0.4-1.3l3.5-1.8l1-9.1l6.6-2.2   c0.5-0.2,1.1,0.1,1.3,0.6c0.2,0.5-0.1,1.1-0.6,1.3l-5.4,1.8l-1,8.9l-4.5,2.2C7.3,35,7.2,35,7,35z"/>
	<path style="fill:#37474F;" d="M28,16c0,1.1-0.9,2-2,2h-4c-1.1,0-2-0.9-2-2v-3c0-1.1,0.9-2,2-2h4c1.1,0,2,0.9,2,2V16z"/>
	<path style="fill:#37474F;" d="M25,12h-2V8.3l0.7-0.2C23.8,8,26,7.2,26,5h2c0,2.7-1.9,4.1-3,4.6V12z"/>
	<path style="fill:#37474F;" d="M23.7,9.9C23.5,9.9,20,8.7,20,5h2c0,2.2,2.2,3,2.3,3.1L23.7,9.9z"/>
	<path style="fill:#8BC34A;" d="M15.9,34c0,0,1,8,8.1,8c7.1,0,8.1-8,8.1-8l0.8-8c0,0,0.2-2-1.9-2c-2,0-12.2,0-14.3,0   c-2,0-1.9,2-1.9,2L15.9,34z"/>
	<path style="fill:#2E7D32;" d="M25,24c-0.7,0-1.3,0-2,0v17.9c0.3,0,0.6,0.1,1,0.1s0.7,0,1-0.1V24z"/>
	<path style="fill:#43A047;" d="M29,40.1V24c-0.6,0-1.3,0-2,0v17.4C27.8,41.1,28.5,40.6,29,40.1z"/>
	<path style="fill:#43A047;" d="M32.2,34l0.8-8c0,0,0.3-2-2-2v13.6C31.9,35.9,32.2,34,32.2,34z"/>
	<path style="fill:#43A047;" d="M21,41.4V24c-0.7,0-1.4,0-2,0v16.1C19.6,40.6,20.2,41.1,21,41.4z"/>
	<path style="fill:#43A047;" d="M15,26l0.8,8c0,0,0.3,1.9,1.1,3.5V24C14.8,24,15,26,15,26z"/>
	<path style="fill:#2E7D32;" d="M25,14H23c-5.9,0-8,3.8-8,8c0,1.9,2.2,2,2.2,2h13.6c0,0,2.2,0,2.2-1.9C33,17.8,30.9,14,25,14z"/>
	<path style="fill:#09350B;" d="M21,24c0,0,1-2,3-2s3,2,3,2c-2,0-3,6-3,6S23,24,21,24z"/>
</g>
</svg>
