<?xml version="1.0" encoding="utf-8"?>
<!-- Generator: Adobe Illustrator 15.0.0, SVG Export Plug-In . SVG Version: 6.00 Build 0)  -->
<!DOCTYPE svg PUBLIC "-//W3C//DTD SVG 1.1//EN" "http://www.w3.org/Graphics/SVG/1.1/DTD/svg11.dtd">
<svg version="1.1"  xmlns="http://www.w3.org/2000/svg" xmlns:xlink="http://www.w3.org/1999/xlink" x="0px" y="0px"
	viewBox="0 0 48 48" enable-background="new 0 0 48 48" xml:space="preserve">
<path fill="#FFC107" d="M7.629,27.344c7,13.656,21,14.656,21,14.656c5.031-4.802,8.534-12.235,8.534-12.235l-14.778-8.403
	C22.385,21.361,16.066,28.691,7.629,27.344z"/>
<g>
	<circle fill="#B3E5FC" cx="8" cy="8" r="2"/>
	<circle fill="#B3E5FC" cx="14.5" cy="9.5" r="1.5"/>
	<circle fill="#B3E5FC" cx="13" cy="16" r="3"/>
</g>
<g>
	<path fill="#3F51B5" d="M36.277,21.209l-0.481,0.877l-6.099-3.469l0.494-0.869l7.291-10.984c0.735-0.911,2.108-0.988,3.147-0.333
		c1.067,0.547,1.636,1.734,1.248,2.719L36.277,21.209z"/>
	<path fill="#3F51B5" d="M35.408,20.714l-4.348-2.471c-3.477-1.978-6.204-1.229-8.181,2.249l-0.495,0.869l14.778,8.403l0.494-0.868
		C39.635,25.42,38.884,22.692,35.408,20.714z"/>
</g>
<path fill="#F57C00" d="M20.145,23.438c0.286,0.636,0.765,1.558,1.52,2.091c0.022,0.017,0.048,0.024,0.071,0.04
	c0,0,0,0.001,0.001,0.002c0.962,0.678,2.151,0.929,3.551,0.759c0.265,0.714,0.747,1.563,1.633,2.188
	c0.021,0.015,0.047,0.023,0.07,0.039c0,0.001,0,0.001,0.002,0.001c0.964,0.68,2.148,0.93,3.549,0.76
	c0.267,0.715,0.748,1.563,1.633,2.188c0.115,0.082,0.234,0.158,0.355,0.227c0.059,0.034,0.129,0.05,0.189,0.079
	c0.83,0.44,1.989,0.592,3.098,0.485c1.013-1.632,1.347-2.532,1.347-2.532l-14.778-8.403C21.438,22.31,21.454,22.28,20.145,23.438z"
	/>
<g>
	<path fill="#FB8C00" d="M14.564,34.255c1.268-0.162,5.436-0.838,8.145-5.088c-3.708,4.25-10.829,3.242-12.22,2.657
		c0.717,0.915,1.467,1.744,2.236,2.503C13.22,34.359,13.815,34.346,14.564,34.255z"/>
	<path fill="#FB8C00" d="M17.243,37.913c1.197,0.755,2.382,1.375,3.508,1.879c0.005,0.002,0.015,0.006,0.02,0.008
		c0.318-0.092,0.663-0.206,1.054-0.363c1.32-0.678,4.341-2.27,6.884-6.229C24.791,37.495,19.633,37.889,17.243,37.913z"/>
</g>
</svg>
