<?xml version="1.0" encoding="utf-8"?>
<!-- Generator: Adobe Illustrator 18.1.1, SVG Export Plug-In . SVG Version: 6.00 Build 0)  -->
<svg version="1.1"  xmlns="http://www.w3.org/2000/svg" xmlns:xlink="http://www.w3.org/1999/xlink" x="0px" y="0px"
	 viewBox="0 0 48 48" enable-background="new 0 0 48 48" xml:space="preserve">
<circle fill="#FFC107" cx="26" cy="26" r="19"/>
<circle fill="#D19E06" cx="24" cy="24" r="19"/>
<circle fill="#FFC107" cx="22" cy="22" r="19"/>
<path fill="#FFE082" d="M22,7C13.7,7,7,13.7,7,22c0,8.3,6.7,15,15,15s15-6.7,15-15C37,13.7,30.3,7,22,7z M34.8,19.8l-2,0.3
	c-0.1-0.6-0.3-1.2-0.5-1.8l1.9-0.7C34.5,18.4,34.7,19.1,34.8,19.8z M33.4,15.8l-1.8,1c-0.3-0.5-0.6-1-1-1.5l1.6-1.2
	C32.7,14.5,33.1,15.1,33.4,15.8z M23,9l-0.2,2c-0.6,0-1.2,0-1.8,0l-0.2-2C21.6,9,22.3,9,23,9z M18.8,9.4l0.5,1.9
	c-0.6,0.1-1.2,0.3-1.7,0.6l-0.8-1.8C17.4,9.8,18.1,9.6,18.8,9.4z M14.9,11.1l1.1,1.7c-0.5,0.3-1,0.7-1.4,1.1l-1.4-1.5
	C13.7,12,14.3,11.5,14.9,11.1z M11.7,14l1.6,1.2c-0.4,0.5-0.7,1-1,1.5l-1.8-1C10.9,15.2,11.3,14.6,11.7,14z M9.7,17.8l1.9,0.6
	c-0.2,0.6-0.3,1.2-0.4,1.8l-2-0.3C9.3,19.2,9.5,18.5,9.7,17.8z M9,22l2,0c0,0.6,0.1,1.2,0.2,1.8l-2,0.3C9.1,23.5,9,22.7,9,22z
	 M10.6,28.2c-0.3-0.6-0.6-1.3-0.9-2l1.9-0.7c0.2,0.6,0.4,1.1,0.7,1.7L10.6,28.2z M13.2,31.6c-0.5-0.5-1-1-1.5-1.6l1.6-1.2
	c0.4,0.5,0.8,0.9,1.2,1.3L13.2,31.6z M16.8,33.9c-0.7-0.3-1.3-0.6-1.9-1l1.1-1.7c0.5,0.3,1,0.6,1.6,0.9L16.8,33.9z M20.9,35
	c-0.7-0.1-1.4-0.2-2.1-0.3l0.5-1.9c0.6,0.1,1.2,0.2,1.8,0.3L20.9,35z M23.1,35l-0.2-2c0.6-0.1,1.2-0.2,1.8-0.3l0.5,1.9
	C24.5,34.8,23.8,34.9,23.1,35z M25.6,24.9c0,2.8-2.7,3.2-3.2,3.2v1.6h-1.3v-1.6c-0.4,0-3.5-0.4-3.5-3.8H20c0,0.4,0,2,1.8,2
	c1.5,0,1.5-1.2,1.5-1.4c0-2.6-5.2-1.5-5.2-5.5c0-2.5,2.2-3.2,3.2-3.2v-1.7h1.3v1.7c0.8,0.1,3,0.7,3,3.7h-2.3c0-0.6-0.2-1.9-1.5-1.9
	c-1.4,0-1.4,1.2-1.4,1.4C20.5,21.8,25.6,20.8,25.6,24.9z M24.7,11.3l0.5-1.9c0.7,0.2,1.4,0.4,2,0.7l-0.8,1.8
	C25.8,11.7,25.3,11.5,24.7,11.3z M27.2,33.9l-0.8-1.8c0.6-0.2,1.1-0.5,1.6-0.9l1.1,1.7C28.5,33.3,27.9,33.6,27.2,33.9z M28,12.8
	l1.1-1.7c0.6,0.4,1.2,0.8,1.7,1.3l-1.3,1.5C29,13.5,28.5,13.1,28,12.8z M30.8,31.6l-1.4-1.5c0.4-0.4,0.9-0.9,1.2-1.3l1.6,1.2
	C31.8,30.5,31.3,31.1,30.8,31.6z M33.4,28.2l-1.8-1c0.3-0.5,0.5-1.1,0.7-1.7l1.9,0.6C34.1,26.9,33.8,27.6,33.4,28.2z M32.9,23.8
	C33,23.2,33,22.6,33,22l1.7,0l0.3,0c0,0.8-0.1,1.5-0.2,2.2L32.9,23.8z"/>
</svg>
