<?xml version="1.0" encoding="utf-8"?>
<!-- Generator: Adobe Illustrator 23.0.3, SVG Export Plug-In . SVG Version: 6.00 Build 0)  -->
<svg version="1.1" id="Layer_1" xmlns="http://www.w3.org/2000/svg" xmlns:xlink="http://www.w3.org/1999/xlink" x="0px" y="0px"
	 viewBox="0 0 1190 632" style="enable-background:new 0 0 1190 632;" xml:space="preserve">
<style type="text/css">
	.st0{fill:url(#SVGID_1_);}
	.st1{fill:url(#SVGID_2_);}
	.st2{fill:url(#SVGID_3_);}
	.st3{fill:url(#SVGID_4_);}
	.st4{fill:url(#SVGID_5_);}
	.st5{fill:url(#SVGID_6_);}
	.st6{fill:url(#SVGID_7_);}
	.st7{fill:url(#SVGID_8_);}
	.st8{fill:url(#SVGID_9_);}
	.st9{fill:url(#SVGID_10_);}
	.st10{fill:url(#SVGID_11_);}
	.st11{fill:url(#SVGID_12_);}
	.st12{fill:url(#SVGID_13_);}
</style>
<g>
	<g>
		<g>
			<g>
				
					<linearGradient id="SVGID_1_" gradientUnits="userSpaceOnUse" x1="186.8636" y1="488.9664" x2="295.3939" y2="325.1842" gradientTransform="matrix(1 0 8.827668e-02 1 -14.867 0)">
					<stop  offset="0" style="stop-color:#0000D0"/>
					<stop  offset="0.2588" style="stop-color:#002CC1"/>
					<stop  offset="0.4026" style="stop-color:#003FBB"/>
					<stop  offset="1" style="stop-color:#2196F3"/>
				</linearGradient>
				<polygon class="st0" points="229.2,248.5 246.8,219.2 494.2,219.2 476.6,248.5 				"/>
			</g>
		</g>
		<g>
			<g>
				
					<linearGradient id="SVGID_2_" gradientUnits="userSpaceOnUse" x1="169.3136" y1="477.3369" x2="277.844" y2="313.5547" gradientTransform="matrix(1 0 8.827668e-02 1 -14.867 0)">
					<stop  offset="0" style="stop-color:#0000D0"/>
					<stop  offset="0.2588" style="stop-color:#002CC1"/>
					<stop  offset="0.4026" style="stop-color:#003FBB"/>
					<stop  offset="1" style="stop-color:#2196F3"/>
				</linearGradient>
				<polygon class="st1" points="216.9,292.5 234.5,263.3 405.4,263.3 387.8,292.5 				"/>
			</g>
		</g>
		<g>
			<g>
				
					<linearGradient id="SVGID_3_" gradientUnits="userSpaceOnUse" x1="155.1721" y1="467.966" x2="263.7025" y2="304.1839" gradientTransform="matrix(1 0 8.827668e-02 1 -14.867 0)">
					<stop  offset="0" style="stop-color:#0000D0"/>
					<stop  offset="0.2588" style="stop-color:#002CC1"/>
					<stop  offset="0.4026" style="stop-color:#003FBB"/>
					<stop  offset="1" style="stop-color:#2196F3"/>
				</linearGradient>
				<polygon class="st2" points="205.3,335.2 222.9,306 327.2,306 309.6,335.2 				"/>
			</g>
		</g>
		<g>
			<g>
				
					<linearGradient id="SVGID_4_" gradientUnits="userSpaceOnUse" x1="147.2643" y1="465.2979" x2="255.7947" y2="301.5157" gradientTransform="matrix(1 0 8.827668e-02 1 -14.867 0)">
					<stop  offset="0" style="stop-color:#0000D0"/>
					<stop  offset="0.2588" style="stop-color:#002CC1"/>
					<stop  offset="0.4026" style="stop-color:#003FBB"/>
					<stop  offset="1" style="stop-color:#2196F3"/>
				</linearGradient>
				<polygon class="st3" points="194.1,377.3 211.7,348.1 270.7,348.1 253.1,377.3 				"/>
			</g>
		</g>
		<g>
			<g>
				
					<linearGradient id="SVGID_5_" gradientUnits="userSpaceOnUse" x1="148.989" y1="463.8688" x2="257.5194" y2="300.0866" gradientTransform="matrix(1 0 8.827668e-02 1 -14.867 0)">
					<stop  offset="0" style="stop-color:#0000D0"/>
					<stop  offset="0.2588" style="stop-color:#002CC1"/>
					<stop  offset="0.4026" style="stop-color:#003FBB"/>
					<stop  offset="1" style="stop-color:#2196F3"/>
				</linearGradient>
				<polygon class="st4" points="182.6,418.2 200.2,388.9 236.8,388.9 219.2,418.2 				"/>
			</g>
		</g>
	</g>
	<g>
		<linearGradient id="SVGID_6_" gradientUnits="userSpaceOnUse" x1="357.8238" y1="559.6277" x2="624.2164" y2="273.5023">
			<stop  offset="0" style="stop-color:#0000D0"/>
			<stop  offset="0.2588" style="stop-color:#002CC1"/>
			<stop  offset="0.4026" style="stop-color:#003FBB"/>
			<stop  offset="1" style="stop-color:#2196F3"/>
		</linearGradient>
		<path class="st5" d="M554.9,322.1l-13.9,0c0.4-2.2,0.9-4.3,1.5-6.3c0.6-2,1.6-4.3,2.9-6.7l13.9,0l1.6-4.8
			c3.8-11.1,8.9-19.4,15.3-24.9c6.4-5.5,14.7-8.2,24.7-8.2c2.9,0,5.4,0.2,7.4,0.6c2,0.4,3.9,0.9,5.6,1.4c-1.1,2.9-2.2,5.2-3.3,7.2
			c-1,1.9-2.3,3.9-3.8,6c-1.2-0.4-2.4-0.8-3.7-1.2c-1.3-0.3-2.8-0.5-4.6-0.5c-2.3,0-4.5,0.3-6.5,0.9c-2,0.6-3.9,1.6-5.6,3.1
			c-1.8,1.5-3.4,3.5-5,6.1c-1.6,2.6-3,5.8-4.3,9.8c-0.4,0.8-0.6,1.5-0.9,2.2c-0.2,0.7-0.5,1.5-0.9,2.2l20.6,0
			c-0.4,2.3-0.9,4.4-1.5,6.4c-0.6,2-1.6,4.2-2.9,6.6l-20.6,0l-25,72c-2.6,7.4-5.3,13.6-8.1,18.6c-2.8,5.1-5.9,9.1-9.3,12.3
			c-3.4,3.1-7.2,5.4-11.3,6.8c-4.1,1.4-8.7,2.1-13.8,2.1c-2.5,0-4.8-0.2-6.9-0.6c-2.2-0.4-4-0.9-5.6-1.6c0.9-2.5,1.8-4.8,2.8-6.8
			c1-2,2.2-4,3.7-6c1,0.4,2.2,0.8,3.6,1.1c1.3,0.3,2.7,0.4,4.2,0.4c2.6,0,4.9-0.3,7.1-1c2.2-0.7,4.2-2,6.1-4c1.9-2,3.8-4.8,5.7-8.3
			c1.9-3.6,3.8-8.2,5.8-13.9L554.9,322.1z"/>
		<linearGradient id="SVGID_7_" gradientUnits="userSpaceOnUse" x1="400.1008" y1="598.9891" x2="666.4935" y2="312.8636">
			<stop  offset="0" style="stop-color:#0000D0"/>
			<stop  offset="0.2588" style="stop-color:#002CC1"/>
			<stop  offset="0.4026" style="stop-color:#003FBB"/>
			<stop  offset="1" style="stop-color:#2196F3"/>
		</linearGradient>
		<path class="st6" d="M653.5,357.7c-2.3,6.6-4.3,12.3-5.8,17c-1.5,4.7-2.6,8.8-3.2,12.4c-0.2,1.4-0.4,2.6-0.5,3.4
			c-0.1,0.8-0.1,1.8-0.1,3.1c-1.3,0.2-2.6,0.4-4.1,0.5c-1.5,0.1-2.8,0.2-4,0.2c-1.1,0-2.3-0.1-3.6-0.2c-1.3-0.1-2.6-0.3-3.8-0.5
			c0-1.2,0-2.4,0.1-3.7c0.1-1.3,0.3-2.8,0.6-4.7c0.2-1.2,0.6-2.9,1.3-4.9c0.6-2.1,1.3-4,1.9-5.6c-1.6,2.4-3.7,4.9-6.1,7.3
			c-2.4,2.5-5.1,4.7-8.1,6.8c-3,2-6.2,3.7-9.7,5c-3.5,1.3-7.2,2-10.9,2c-7.4,0-12.5-2.4-15.4-7.2c-2.9-4.8-3.7-11.3-2.3-19.5
			c1.3-7.8,3.8-15.4,7.5-22.8c3.7-7.4,8.4-14,14.2-19.8c5.8-5.8,12.5-10.4,20.2-13.9c7.7-3.5,16.3-5.3,25.8-5.3c4,0,8,0.3,12,0.9
			c4,0.6,7.4,1.5,10.3,2.6L653.5,357.7z M650.1,321.6c-1.3-0.3-2.6-0.6-4.1-0.7c-1.4-0.1-3-0.2-4.8-0.2c-5.6,0-10.8,1.3-15.6,3.8
			c-4.8,2.5-9.2,5.9-13.1,10.1c-3.9,4.2-7.1,9-9.7,14.3c-2.6,5.3-4.3,10.8-5.3,16.4c-0.9,5.3-0.6,9.4,0.8,12.3
			c1.4,2.9,4,4.4,7.8,4.4c3.5,0,7-1.1,10.6-3.3c3.6-2.2,7.1-5.2,10.4-9.1c3.3-3.9,6.4-8.5,9.2-13.7c2.8-5.2,5.3-10.8,7.4-16.7
			L650.1,321.6z"/>
		<linearGradient id="SVGID_8_" gradientUnits="userSpaceOnUse" x1="444.4686" y1="643.0901" x2="710.8613" y2="356.9647">
			<stop  offset="0" style="stop-color:#0000D0"/>
			<stop  offset="0.2588" style="stop-color:#002CC1"/>
			<stop  offset="0.4026" style="stop-color:#003FBB"/>
			<stop  offset="1" style="stop-color:#2196F3"/>
		</linearGradient>
		<path class="st7" d="M739,357.7c-2.3,6.6-4.3,12.3-5.8,17c-1.5,4.7-2.6,8.8-3.2,12.4c-0.2,1.4-0.4,2.6-0.5,3.4
			c-0.1,0.8-0.1,1.8-0.1,3.1c-1.3,0.2-2.6,0.4-4.1,0.5c-1.5,0.1-2.8,0.2-4,0.2c-1.1,0-2.3-0.1-3.6-0.2c-1.3-0.1-2.6-0.3-3.8-0.5
			c0-1.2,0-2.4,0.1-3.7c0.1-1.3,0.3-2.8,0.6-4.7c0.2-1.2,0.6-2.9,1.3-4.9c0.6-2.1,1.3-4,1.9-5.6c-1.6,2.4-3.7,4.9-6.1,7.3
			c-2.4,2.5-5.1,4.7-8.1,6.8c-3,2-6.2,3.7-9.7,5c-3.5,1.3-7.2,2-10.9,2c-7.4,0-12.5-2.4-15.4-7.2c-2.9-4.8-3.7-11.3-2.3-19.5
			c1.3-7.8,3.8-15.4,7.5-22.8c3.7-7.4,8.4-14,14.2-19.8c5.8-5.8,12.5-10.4,20.2-13.9c7.7-3.5,16.3-5.3,25.8-5.3c4,0,8,0.3,12,0.9
			c4,0.6,7.4,1.5,10.3,2.6L739,357.7z M735.5,321.6c-1.3-0.3-2.6-0.6-4.1-0.7c-1.4-0.1-3-0.2-4.8-0.2c-5.6,0-10.8,1.3-15.6,3.8
			c-4.8,2.5-9.2,5.9-13.1,10.1c-3.9,4.2-7.1,9-9.7,14.3c-2.6,5.3-4.3,10.8-5.3,16.4c-0.9,5.3-0.6,9.4,0.8,12.3
			c1.4,2.9,4,4.4,7.8,4.4c3.5,0,7-1.1,10.6-3.3c3.6-2.2,7.1-5.2,10.4-9.1c3.3-3.9,6.4-8.5,9.2-13.7c2.8-5.2,5.3-10.8,7.4-16.7
			L735.5,321.6z"/>
		<linearGradient id="SVGID_9_" gradientUnits="userSpaceOnUse" x1="481.3416" y1="678.3512" x2="747.7343" y2="392.2257">
			<stop  offset="0" style="stop-color:#0000D0"/>
			<stop  offset="0.2588" style="stop-color:#002CC1"/>
			<stop  offset="0.4026" style="stop-color:#003FBB"/>
			<stop  offset="1" style="stop-color:#2196F3"/>
		</linearGradient>
		<path class="st8" d="M777.2,353.9c-1.6-0.7-3.2-1.5-4.9-2.5c-1.7-1-3.2-2.3-4.5-3.8c-1.3-1.5-2.3-3.5-2.9-5.9
			c-0.7-2.4-0.7-5.2-0.2-8.5c0.7-4.1,2.1-7.7,4.4-11c2.2-3.2,5-6,8.4-8.2s7.3-4,11.7-5.2c4.4-1.2,9.1-1.8,14.3-1.8
			c4.6,0,8.8,0.5,12.8,1.5c4,1,7,2.1,9.1,3.3c-1.6,4.3-3.9,8.4-6.9,12.4c-1.7-0.9-4.2-1.8-7.4-2.7c-3.2-0.9-6.7-1.4-10.5-1.4
			c-4.8,0-8.9,0.8-12.4,2.5c-3.5,1.6-5.5,4.5-6.2,8.6c-0.4,2.5,0,4.6,1.2,6.3c1.2,1.7,3.6,3.3,7.3,4.9l3.4,1.6c1.9,1,4,2,6.1,3.1
			c2.1,1.1,3.9,2.4,5.5,4c1.6,1.6,2.7,3.5,3.5,5.8c0.8,2.3,0.9,5,0.4,8.3c-0.9,5.3-2.7,9.8-5.3,13.6c-2.6,3.8-5.9,6.9-9.9,9.4
			c-3.9,2.5-8.3,4.3-13.1,5.5c-4.8,1.2-9.9,1.8-15.3,1.8c-4.5,0-8.8-0.4-12.9-1.2c-4.2-0.8-7.5-1.8-10.1-3c0.6-2.4,1.4-4.7,2.4-6.9
			c1-2.2,2.3-4.3,3.8-6.3c2.7,1.2,5.9,2.2,9.7,2.9c3.8,0.7,7.3,1.1,10.7,1.1c2.8,0,5.4-0.2,8-0.7c2.5-0.5,4.8-1.3,6.7-2.3
			s3.6-2.4,5-4.2c1.4-1.8,2.3-4,2.7-6.6c0.6-3.4,0-6-1.7-7.7c-1.7-1.7-4.3-3.3-7.7-4.7L777.2,353.9z"/>
		<linearGradient id="SVGID_10_" gradientUnits="userSpaceOnUse" x1="515.137" y1="708.8848" x2="781.5297" y2="422.7594">
			<stop  offset="0" style="stop-color:#0000D0"/>
			<stop  offset="0.2588" style="stop-color:#002CC1"/>
			<stop  offset="0.4026" style="stop-color:#003FBB"/>
			<stop  offset="1" style="stop-color:#2196F3"/>
		</linearGradient>
		<path class="st9" d="M844.7,322.2l-13.5,0c0.4-2.2,0.9-4.3,1.6-6.3c0.7-2,1.7-4.3,3-6.7l13.4,0c1-2.9,2-5.8,3-8.7
			c0.9-3,1.7-6,2.2-9.2l0.4-2.6c2.4-1.1,5.2-1.9,8.4-2.5c3.2-0.6,5.9-0.8,8.2-0.8c-0.1,1-0.1,2-0.2,3c-0.1,1-0.3,2-0.4,3.1
			c-0.6,3.4-1.7,7.6-3.5,12.7l-1.9,5.1l21.6,0c-0.4,2.4-1,4.6-1.6,6.7c-0.7,2-1.6,4.1-2.7,6.3l-21.4,0l-12.6,35.8
			c-1,2.5-1.9,5.1-2.8,7.8c-0.9,2.7-1.5,5.1-1.9,7.3c-0.6,3.3-0.1,5.6,1.4,6.8c1.5,1.3,3.7,1.9,6.6,1.9c1.9,0,3.6-0.1,5.3-0.4
			c1.6-0.3,3.2-0.6,4.9-1.1c0.1,1.1,0.2,2.3,0.2,3.6c0,1.3-0.1,2.8-0.4,4.3c-0.1,0.8-0.3,1.6-0.4,2.4c-0.1,0.8-0.3,1.7-0.6,2.6
			c-1.5,0.4-3.5,0.9-5.9,1.2c-2.4,0.4-4.9,0.6-7.6,0.6c-3.6,0-6.8-0.2-9.7-0.7c-2.9-0.5-5.2-1.4-7.1-2.8c-1.9-1.4-3.2-3.2-4-5.6
			c-0.8-2.4-0.8-5.5-0.2-9.3c0.4-2.1,0.9-4.3,1.7-6.7c0.8-2.4,1.6-4.8,2.5-7.3L844.7,322.2z"/>
		<linearGradient id="SVGID_11_" gradientUnits="userSpaceOnUse" x1="551.8008" y1="743.0201" x2="818.1935" y2="456.8947">
			<stop  offset="0" style="stop-color:#0000D0"/>
			<stop  offset="0.2588" style="stop-color:#002CC1"/>
			<stop  offset="0.4026" style="stop-color:#003FBB"/>
			<stop  offset="1" style="stop-color:#2196F3"/>
		</linearGradient>
		<path class="st10" d="M873.1,393.7c0.5-3.1,1.3-6.1,2.5-9.1c1.1-3,2.4-6.1,3.8-9.1c1.6-0.2,3.2-0.4,4.8-0.5
			c1.6-0.1,3.1-0.2,4.7-0.2c1.6,0,3.1,0.1,4.7,0.2c1.5,0.1,3,0.3,4.4,0.5c-0.5,3.2-1.3,6.2-2.4,9.1c-1,2.9-2.3,6-3.7,9.1
			c-1.8,0.2-3.5,0.4-5,0.5c-1.5,0.1-3.1,0.2-4.6,0.2c-1.6,0-3.1-0.1-4.6-0.2C876.1,394.1,874.6,393.9,873.1,393.7z"/>
		<linearGradient id="SVGID_12_" gradientUnits="userSpaceOnUse" x1="555.0881" y1="746.0807" x2="821.4807" y2="459.9552">
			<stop  offset="0" style="stop-color:#0000D0"/>
			<stop  offset="0.2588" style="stop-color:#002CC1"/>
			<stop  offset="0.4026" style="stop-color:#003FBB"/>
			<stop  offset="1" style="stop-color:#2196F3"/>
		</linearGradient>
		<path class="st11" d="M931.1,322.2l-10.4,0c0.4-2.2,0.9-4.3,1.5-6.3c0.6-2,1.6-4.3,2.9-6.7l26.7,0l-33.2,95.9
			c-6.7,19.2-19,28.8-36.8,28.8c-2.7,0-5.2-0.2-7.5-0.6c-2.3-0.4-4.4-0.9-6.2-1.6c0.3-1.8,1-3.8,2-6.3c1-2.4,2.1-4.5,3.3-6.3
			c1.2,0.4,2.6,0.8,4.4,1.1c1.8,0.3,3.5,0.4,5,0.4c4.1,0,7.9-1.2,11.4-3.6c3.5-2.4,6.3-6.8,8.5-13L931.1,322.2z M936.1,291.7
			c0.5-3.2,1.3-6.2,2.4-9.1c1-2.9,2.3-5.8,3.6-8.7c1.6-0.2,3.3-0.4,5.1-0.5c1.8-0.1,3.4-0.2,4.7-0.2c1.3,0,2.9,0.1,4.6,0.2
			c1.7,0.1,3.3,0.3,4.7,0.5c-0.7,3.2-1.5,6.2-2.5,9.1c-1.1,2.9-2.3,5.8-3.6,8.7c-1.6,0.2-3.3,0.4-5.1,0.4c-1.8,0.1-3.4,0.1-4.7,0.1
			c-1.2,0-2.7,0-4.5-0.1C939,292,937.4,291.9,936.1,291.7z"/>
		<linearGradient id="SVGID_13_" gradientUnits="userSpaceOnUse" x1="586.6603" y1="776.4066" x2="853.053" y2="490.2811">
			<stop  offset="0" style="stop-color:#0000D0"/>
			<stop  offset="0.2588" style="stop-color:#002CC1"/>
			<stop  offset="0.4026" style="stop-color:#003FBB"/>
			<stop  offset="1" style="stop-color:#2196F3"/>
		</linearGradient>
		<path class="st12" d="M973.8,354c-1.6-0.7-3.2-1.5-4.9-2.5c-1.7-1-3.2-2.3-4.5-3.8c-1.3-1.5-2.3-3.5-2.9-5.9
			c-0.7-2.4-0.7-5.2-0.2-8.5c0.7-4.1,2.1-7.7,4.4-11c2.2-3.2,5-6,8.4-8.2s7.3-4,11.7-5.2c4.4-1.2,9.1-1.8,14.3-1.8
			c4.6,0,8.8,0.5,12.8,1.5c4,1,7,2.1,9.1,3.3c-1.6,4.3-3.9,8.4-6.9,12.4c-1.7-0.9-4.2-1.8-7.4-2.7c-3.2-0.9-6.7-1.4-10.5-1.4
			c-4.8,0-8.9,0.8-12.4,2.5s-5.5,4.5-6.2,8.6c-0.4,2.5,0,4.6,1.2,6.3c1.2,1.7,3.6,3.3,7.3,4.9l3.4,1.6c1.9,1,4,2,6.1,3.1
			c2.1,1.1,3.9,2.4,5.5,4c1.6,1.6,2.7,3.5,3.5,5.8c0.8,2.3,0.9,5,0.4,8.3c-0.9,5.3-2.7,9.8-5.3,13.6c-2.6,3.8-5.9,6.9-9.9,9.4
			c-3.9,2.5-8.3,4.3-13.1,5.5c-4.8,1.2-9.9,1.8-15.3,1.8c-4.5,0-8.8-0.4-12.9-1.2c-4.2-0.8-7.5-1.8-10.1-3c0.6-2.4,1.4-4.7,2.4-6.9
			c1-2.2,2.3-4.3,3.8-6.3c2.7,1.2,5.9,2.2,9.7,2.9c3.8,0.7,7.3,1.1,10.7,1.1c2.8,0,5.4-0.2,8-0.7c2.5-0.5,4.8-1.3,6.7-2.3
			s3.6-2.4,5-4.2c1.4-1.8,2.3-4,2.7-6.6c0.6-3.4,0-6-1.7-7.7s-4.3-3.3-7.7-4.7L973.8,354z"/>
	</g>
</g>
</svg>
