<?xml version="1.0" encoding="iso-8859-1"?>
<!-- Generator: Adobe Illustrator 21.0.2, SVG Export Plug-In . SVG Version: 6.00 Build 0)  -->
<svg xmlns="http://www.w3.org/2000/svg" xmlns:xlink="http://www.w3.org/1999/xlink" version="1.1" x="0px" y="0px" viewBox="0 0 40 40" style="enable-background:new 0 0 40 40;" xml:space="preserve">
<g id="Layer_1">
</g>
<g id="Layer_2">
	<path style="fill:none;stroke:#4788C7;stroke-miterlimit:10;" d="M35.312,35.5H17.5c-3.866,0-7-3.134-7-7v-10c0-2.761,2.239-5,5-5   h19.812"/>
	<path style="fill:none;stroke:#4788C7;stroke-miterlimit:10;" d="M35.312,26.563H15.5c-2.761,0-5-2.342-5-5.23v-9.479   c0-4.044,3.134-7.322,7-7.322h17.812"/>
	<g>
		<circle style="fill:#B6DCFE;" cx="6" cy="20" r="4.5"/>
		<path style="fill:#4788C7;" d="M6,16c2.206,0,4,1.794,4,4s-1.794,4-4,4s-4-1.794-4-4S3.794,16,6,16 M6,15c-2.761,0-5,2.239-5,5    s2.239,5,5,5s5-2.239,5-5S8.761,15,6,15L6,15z"/>
	</g>
	<g>
		<circle style="fill:#B6DCFE;" cx="35" cy="5" r="3.5"/>
		<path style="fill:#4788C7;" d="M35,2c1.654,0,3,1.346,3,3s-1.346,3-3,3s-3-1.346-3-3S33.346,2,35,2 M35,1c-2.209,0-4,1.791-4,4    s1.791,4,4,4s4-1.791,4-4S37.209,1,35,1L35,1z"/>
	</g>
	<g>
		<circle style="fill:#B6DCFE;" cx="35" cy="14" r="3.5"/>
		<path style="fill:#4788C7;" d="M35,11c1.654,0,3,1.346,3,3s-1.346,3-3,3s-3-1.346-3-3S33.346,11,35,11 M35,10    c-2.209,0-4,1.791-4,4s1.791,4,4,4s4-1.791,4-4S37.209,10,35,10L35,10z"/>
	</g>
	<g>
		<circle style="fill:#B6DCFE;" cx="35" cy="26" r="3.5"/>
		<path style="fill:#4788C7;" d="M35,23c1.654,0,3,1.346,3,3s-1.346,3-3,3s-3-1.346-3-3S33.346,23,35,23 M35,22    c-2.209,0-4,1.791-4,4s1.791,4,4,4s4-1.791,4-4S37.209,22,35,22L35,22z"/>
	</g>
	<g>
		<circle style="fill:#B6DCFE;" cx="35" cy="35" r="3.5"/>
		<path style="fill:#4788C7;" d="M35,32c1.654,0,3,1.346,3,3s-1.346,3-3,3s-3-1.346-3-3S33.346,32,35,32 M35,31    c-2.209,0-4,1.791-4,4s1.791,4,4,4s4-1.791,4-4S37.209,31,35,31L35,31z"/>
	</g>
</g>
</svg>
