<?xml version="1.0" encoding="iso-8859-1"?>
<!-- Generator: Adobe Illustrator 21.0.2, SVG Export Plug-In . SVG Version: 6.00 Build 0)  -->
<svg xmlns="http://www.w3.org/2000/svg" xmlns:xlink="http://www.w3.org/1999/xlink" version="1.1" id="Layer_1" x="0px" y="0px" viewBox="0 0 40 40" style="enable-background:new 0 0 40 40;" xml:space="preserve">
<line style="fill:#DFF0FE;stroke:#4788C7;stroke-width:2;stroke-linecap:round;stroke-miterlimit:10;" x1="20" y1="20" x2="8" y2="32"/>
<line style="fill:#DFF0FE;stroke:#4788C7;stroke-width:2;stroke-linecap:round;stroke-miterlimit:10;" x1="32.214" y1="32.214" x2="20" y2="20"/>
<line style="fill:#DFF0FE;stroke:#4788C7;stroke-width:2;stroke-miterlimit:10;" x1="32" y1="8" x2="20" y2="20"/>
<g>
	<circle style="fill:#DFF0FE;" cx="32" cy="8" r="2.5"/>
	<g>
		<path style="fill:#4788C7;" d="M32,6c1.103,0,2,0.897,2,2s-0.897,2-2,2s-2-0.897-2-2S30.897,6,32,6 M32,5c-1.657,0-3,1.343-3,3    s1.343,3,3,3s3-1.343,3-3S33.657,5,32,5L32,5z"/>
	</g>
</g>
<line style="fill:#DFF0FE;stroke:#4788C7;stroke-width:2;stroke-miterlimit:10;" x1="7.786" y1="7.786" x2="20" y2="20"/>
<g>
	<path style="fill:#DFF0FE;" d="M20,30.357c-5.711,0-10.357-4.646-10.357-10.357S14.289,9.643,20,9.643S30.357,14.289,30.357,20   S25.711,30.357,20,30.357z"/>
	<g>
		<path style="fill:#4788C7;" d="M20,10.143c5.435,0,9.857,4.422,9.857,9.857S25.435,29.857,20,29.857S10.143,25.435,10.143,20    S14.565,10.143,20,10.143 M20,9.143C14.004,9.143,9.143,14.004,9.143,20S14.004,30.857,20,30.857S30.857,25.996,30.857,20    S25.996,9.143,20,9.143L20,9.143z"/>
	</g>
</g>
<g>
	<circle style="fill:#DFF0FE;" cx="8" cy="8" r="2.5"/>
	<g>
		<path style="fill:#4788C7;" d="M8,6c1.103,0,2,0.897,2,2s-0.897,2-2,2S6,9.103,6,8S6.897,6,8,6 M8,5C6.343,5,5,6.343,5,8    s1.343,3,3,3s3-1.343,3-3S9.657,5,8,5L8,5z"/>
	</g>
</g>
<g>
	<circle style="fill:#DFF0FE;" cx="8" cy="32" r="2.5"/>
	<g>
		<path style="fill:#4788C7;" d="M8,30c1.103,0,2,0.897,2,2s-0.897,2-2,2s-2-0.897-2-2S6.897,30,8,30 M8,29c-1.657,0-3,1.343-3,3    s1.343,3,3,3s3-1.343,3-3S9.657,29,8,29L8,29z"/>
	</g>
</g>
<line style="fill:#DFF0FE;stroke:#4788C7;stroke-width:2;stroke-linecap:round;stroke-miterlimit:10;" x1="20" y1="12" x2="20" y2="4"/>
<g>
	<circle style="fill:#DFF0FE;" cx="20" cy="4" r="2.5"/>
	<g>
		<path style="fill:#4788C7;" d="M20,2c1.103,0,2,0.897,2,2s-0.897,2-2,2s-2-0.897-2-2S18.897,2,20,2 M20,1c-1.657,0-3,1.343-3,3    s1.343,3,3,3s3-1.343,3-3S21.657,1,20,1L20,1z"/>
	</g>
</g>
<g>
	<circle style="fill:#DFF0FE;" cx="20" cy="20" r="2.5"/>
	<g>
		<path style="fill:#4788C7;" d="M20,18c1.103,0,2,0.897,2,2s-0.897,2-2,2s-2-0.897-2-2S18.897,18,20,18 M20,17    c-1.657,0-3,1.343-3,3s1.343,3,3,3s3-1.343,3-3S21.657,17,20,17L20,17z"/>
	</g>
</g>
<g>
	<circle style="fill:#DFF0FE;" cx="32" cy="32" r="2.5"/>
	<g>
		<path style="fill:#4788C7;" d="M32,30c1.103,0,2,0.897,2,2s-0.897,2-2,2s-2-0.897-2-2S30.897,30,32,30 M32,29    c-1.657,0-3,1.343-3,3s1.343,3,3,3s3-1.343,3-3S33.657,29,32,29L32,29z"/>
	</g>
</g>
<line style="fill:#DFF0FE;stroke:#4788C7;stroke-width:2;stroke-linecap:round;stroke-linejoin:round;stroke-miterlimit:10;" x1="20" y1="28" x2="20" y2="36"/>
<g>
	<circle style="fill:#DFF0FE;" cx="20" cy="36" r="2.5"/>
	<g>
		<path style="fill:#4788C7;" d="M20,34c1.103,0,2,0.897,2,2s-0.897,2-2,2s-2-0.897-2-2S18.897,34,20,34 M20,33    c-1.657,0-3,1.343-3,3s1.343,3,3,3s3-1.343,3-3S21.657,33,20,33L20,33z"/>
	</g>
</g>
<line style="fill:#DFF0FE;stroke:#4788C7;stroke-width:2;stroke-linecap:round;stroke-linejoin:round;stroke-miterlimit:10;" x1="28" y1="20" x2="36" y2="20"/>
<g>
	<circle style="fill:#DFF0FE;" cx="36" cy="20" r="2.5"/>
	<g>
		<path style="fill:#4788C7;" d="M36,18c1.103,0,2,0.897,2,2s-0.897,2-2,2s-2-0.897-2-2S34.897,18,36,18 M36,17    c-1.657,0-3,1.343-3,3s1.343,3,3,3s3-1.343,3-3S37.657,17,36,17L36,17z"/>
	</g>
</g>
<line style="fill:#DFF0FE;stroke:#4788C7;stroke-width:2;stroke-linecap:round;stroke-miterlimit:10;" x1="4" y1="20" x2="12" y2="20"/>
<g>
	<circle style="fill:#DFF0FE;" cx="4" cy="20" r="2.5"/>
	<g>
		<path style="fill:#4788C7;" d="M4,18c1.103,0,2,0.897,2,2s-0.897,2-2,2s-2-0.897-2-2S2.897,18,4,18 M4,17c-1.657,0-3,1.343-3,3    s1.343,3,3,3s3-1.343,3-3S5.657,17,4,17L4,17z"/>
	</g>
</g>
<line style="fill:none;stroke:#4788C7;stroke-width:2;stroke-linecap:round;stroke-miterlimit:10;" x1="3" y1="3" x2="37" y2="37"/>
</svg>
