<?xml version="1.0" encoding="iso-8859-1"?>
<!-- Generator: Adobe Illustrator 21.0.2, SVG Export Plug-In . SVG Version: 6.00 Build 0)  -->
<svg xmlns="http://www.w3.org/2000/svg" xmlns:xlink="http://www.w3.org/1999/xlink" version="1.1" id="Layer_1" x="0px" y="0px" viewBox="0 0 40 40" style="enable-background:new 0 0 40 40;" xml:space="preserve">
<g>
	<path style="fill:#B6DCFE;" d="M20,35.5c-8.547,0-15.5-6.953-15.5-15.5S11.453,4.5,20,4.5S35.5,11.453,35.5,20S28.547,35.5,20,35.5   z"/>
	<g>
		<path style="fill:#4788C7;" d="M20,5c8.271,0,15,6.729,15,15s-6.729,15-15,15S5,28.271,5,20S11.729,5,20,5 M20,4    C11.163,4,4,11.163,4,20s7.163,16,16,16s16-7.163,16-16S28.837,4,20,4L20,4z"/>
	</g>
</g>
<g>
	<circle style="fill:#DFF0FE;" cx="20" cy="20" r="12"/>
</g>
<path style="fill:#4788C7;" d="M24.913,22.722c0-4.559-7.165-4.211-7.165-6.774c0-0.826,0.741-1.539,2.264-1.539  c1.725,0,2.967,0.489,3.932,1.074v-2.788c-0.701-0.39-1.758-0.62-3.161-0.695v-2H19.13v2.043c-1.234,0.131-2.231,0.569-2.984,1.318  C15.383,14.122,15,15.043,15,16.123c0,4.271,7.168,4.403,7.168,6.743c0,0.833-1.044,1.477-2.208,1.477  c-2.895,0-4.561-1.009-4.96-1.332v2.86c1.19,0.619,2.746,0.933,4.13,0.947V29h0.052h1.508h0.092v-2.257  c1.309-0.161,2.324-0.577,3.037-1.259C24.548,24.786,24.913,23.864,24.913,22.722z"/>
</svg>
