<?xml version="1.0" encoding="utf-8"?>
<!-- Generator: Adobe Illustrator 21.0.2, SVG Export Plug-In . SVG Version: 6.00 Build 0)  -->
<svg xmlns="http://www.w3.org/2000/svg" xmlns:xlink="http://www.w3.org/1999/xlink" version="1.1" id="Layer_1" x="0px" y="0px" viewBox="0 0 48 48" style="enable-background:new 0 0 48 48;" xml:space="preserve">
<g id="surface1">
	<path style="fill:#B0BEC5;" d="M13,24h-2c0-10.2,6.9-16,19-16v2C19,10,13,15,13,24z"/>
	<path style="fill:#B0BEC5;" d="M30,40c-12.1,0-19-5.8-19-16h2c0,9,6,14,17,14V40z"/>
	<path style="fill:#B0BEC5;" d="M12.6,24.8l-1.2-1.6C18.6,18.1,29.5,18,30,18v2C29.9,20,19.2,20.1,12.6,24.8z"/>
	<path style="fill:#B0BEC5;" d="M30,30c-0.5,0-11.4-0.1-18.6-5.2l1.2-1.6C19.2,27.9,29.9,28,30,28V30z"/>
	<path style="fill:#B0BEC5;" d="M30,4.9V13l4.1-4.1L30,4.9z"/>
	<path style="fill:#B0BEC5;" d="M30,15v8.1l4.1-4.1L30,15z"/>
	<path style="fill:#B0BEC5;" d="M30,25v8.1l4.1-4.1L30,25z"/>
	<path style="fill:#B0BEC5;" d="M30,35v8.1l4.1-4.1L30,35z"/>
	<path style="fill:#00BCD4;" d="M42,9c0,2.2-1.8,4-4,4s-4-1.8-4-4s1.8-4,4-4S42,6.8,42,9z"/>
	<path style="fill:#00BCD4;" d="M42,19c0,2.2-1.8,4-4,4s-4-1.8-4-4s1.8-4,4-4S42,16.8,42,19z"/>
	<path style="fill:#00BCD4;" d="M42,29c0,2.2-1.8,4-4,4s-4-1.8-4-4s1.8-4,4-4S42,26.8,42,29z"/>
	<path style="fill:#00BCD4;" d="M42,39c0,2.2-1.8,4-4,4s-4-1.8-4-4s1.8-4,4-4S42,36.8,42,39z"/>
	<path style="fill:#0097A7;" d="M18,24c0,3.3-2.7,6-6,6s-6-2.7-6-6s2.7-6,6-6S18,20.7,18,24z"/>
</g>
</svg>
