<svg xmlns="http://www.w3.org/2000/svg" width="1440" height="900"><path d="M765,425L900,395L863,272Z" fill="#bdddf9" stroke="#bdddf9" stroke-width="1.51"/><path d="M863,272L717,269L765,425Z" fill="#c5e1fa" stroke="#c5e1fa" stroke-width="1.51"/><path d="M717,269L643,347L765,425Z" fill="#c2e1fb" stroke="#c2e1fb" stroke-width="1.51"/><path d="M900,395L1010,366L863,272Z" fill="#c1dcf8" stroke="#c1dcf8" stroke-width="1.51"/><path d="M1010,366L971,225L863,272Z" fill="#cae0f8" stroke="#cae0f8" stroke-width="1.51"/><path d="M863,272L702,169L717,269Z" fill="#d3e7fa" stroke="#d3e7fa" stroke-width="1.51"/><path d="M765,425L847,568L900,395Z" fill="#aed7f9" stroke="#aed7f9" stroke-width="1.51"/><path d="M900,395L990,505L1010,366Z" fill="#b3d7f8" stroke="#b3d7f8" stroke-width="1.51"/><path d="M763,567L847,568L765,425Z" fill="#aed6f8" stroke="#aed6f8" stroke-width="1.51"/><path d="M717,269L567,206L643,347Z" fill="#d5e9fb" stroke="#d5e9fb" stroke-width="1.51"/><path d="M856,96L702,169L863,272Z" fill="#d5e8fa" stroke="#d5e8fa" stroke-width="1.51"/><path d="M598,472L763,567L765,425Z" fill="#b0d9fa" stroke="#b0d9fa" stroke-width="1.51"/><path d="M847,568L990,505L900,395Z" fill="#aed4f7" stroke="#aed4f7" stroke-width="1.51"/><path d="M763,567L795,598L847,568Z" fill="#aed4f7" stroke="#aed4f7" stroke-width="1.51"/><path d="M847,568L995,624L990,505Z" fill="#aed1f5" stroke="#aed1f5" stroke-width="1.51"/><path d="M643,347L598,472L765,425Z" fill="#bbdefb" stroke="#bbdefb" stroke-width="1.51"/><path d="M763,567L686,654L795,598Z" fill="#aed4f7" stroke="#aed4f7" stroke-width="1.51"/><path d="M417,380L598,472L643,347Z" fill="#c9e4fb" stroke="#c9e4fb" stroke-width="1.51"/><path d="M971,225L856,96L863,272Z" fill="#d5e6f8" stroke="#d5e6f8" stroke-width="1.51"/><path d="M702,169L614,171L717,269Z" fill="#daebfa" stroke="#daebfa" stroke-width="1.51"/><path d="M585,-27L614,171L702,169Z" fill="#dfeefb" stroke="#dfeefb" stroke-width="1.51"/><path d="M614,171L567,206L717,269Z" fill="#deedfa" stroke="#deedfa" stroke-width="1.51"/><path d="M971,225L963,95L856,96Z" fill="#d6e6f8" stroke="#d6e6f8" stroke-width="1.51"/><path d="M1010,366L1102,275L971,225Z" fill="#cadef6" stroke="#cadef6" stroke-width="1.51"/><path d="M1117,434L1102,275L1010,366Z" fill="#bed9f6" stroke="#bed9f6" stroke-width="1.51"/><path d="M1139,110L963,95L971,225Z" fill="#d5e3f7" stroke="#d5e3f7" stroke-width="1.51"/><path d="M990,505L1117,434L1010,366Z" fill="#b1d4f6" stroke="#b1d4f6" stroke-width="1.51"/><path d="M990,505L1093,533L1117,434Z" fill="#aed1f5" stroke="#aed1f5" stroke-width="1.51"/><path d="M950,776L995,624L847,568Z" fill="#aecef3" stroke="#aecef3" stroke-width="1.51"/><path d="M995,624L1093,533L990,505Z" fill="#aed0f4" stroke="#aed0f4" stroke-width="1.51"/><path d="M795,598L950,776L847,568Z" fill="#aed0f4" stroke="#aed0f4" stroke-width="1.51"/><path d="M598,472L686,654L763,567Z" fill="#b3d7f9" stroke="#b3d7f9" stroke-width="1.51"/><path d="M856,96L807,13L702,169Z" fill="#d6e9fa" stroke="#d6e9fa" stroke-width="1.51"/><path d="M614,171L500,161L567,206Z" fill="#e6f1fa" stroke="#e6f1fa" stroke-width="1.51"/><path d="M892,-79L807,13L856,96Z" fill="#d7e9fa" stroke="#d7e9fa" stroke-width="1.51"/><path d="M500,161L486,268L567,206Z" fill="#eaf2fa" stroke="#eaf2fa" stroke-width="1.51"/><path d="M567,206L486,268L643,347Z" fill="#ddecfa" stroke="#ddecfa" stroke-width="1.51"/><path d="M598,472L516,538L686,654Z" fill="#bbdbf8" stroke="#bbdbf8" stroke-width="1.51"/><path d="M417,380L516,538L598,472Z" fill="#c5e2fa" stroke="#c5e2fa" stroke-width="1.51"/><path d="M585,-27L500,161L614,171Z" fill="#e6f1fb" stroke="#e6f1fb" stroke-width="1.51"/><path d="M1266,355L1193,287L1117,434Z" fill="#cbe0f8" stroke="#cbe0f8" stroke-width="1.51"/><path d="M1117,434L1193,287L1102,275Z" fill="#c9def7" stroke="#c9def7" stroke-width="1.51"/><path d="M1102,275L1139,110L971,225Z" fill="#d4e2f5" stroke="#d4e2f5" stroke-width="1.51"/><path d="M686,654L706,745L795,598Z" fill="#aed3f6" stroke="#aed3f6" stroke-width="1.51"/><path d="M516,538L639,689L686,654Z" fill="#bad8f7" stroke="#bad8f7" stroke-width="1.51"/><path d="M807,13L741,-26L702,169Z" fill="#d6eafb" stroke="#d6eafb" stroke-width="1.51"/><path d="M892,-79L741,-26L807,13Z" fill="#d7e9fb" stroke="#d7e9fb" stroke-width="1.51"/><path d="M1200,173L1139,110L1102,275Z" fill="#dde7f7" stroke="#dde7f7" stroke-width="1.51"/><path d="M963,95L892,-79L856,96Z" fill="#d6e7f9" stroke="#d6e7f9" stroke-width="1.51"/><path d="M486,268L417,380L643,347Z" fill="#d9ebfa" stroke="#d9ebfa" stroke-width="1.51"/><path d="M367,220L417,380L486,268Z" fill="#e9f1fa" stroke="#e9f1fa" stroke-width="1.51"/><path d="M639,689L706,745L686,654Z" fill="#b7d7f6" stroke="#b7d7f6" stroke-width="1.51"/><path d="M1193,287L1200,173L1102,275Z" fill="#dbe6f7" stroke="#dbe6f7" stroke-width="1.51"/><path d="M990,-56L892,-79L963,95Z" fill="#d7e6f9" stroke="#d7e6f9" stroke-width="1.51"/><path d="M1061,-41L990,-56L963,95Z" fill="#d6e5f8" stroke="#d6e5f8" stroke-width="1.51"/><path d="M1061,-41L963,95L1139,110Z" fill="#d6e4f7" stroke="#d6e4f7" stroke-width="1.51"/><path d="M995,624L1129,692L1093,533Z" fill="#aecdf2" stroke="#aecdf2" stroke-width="1.51"/><path d="M876,816L950,776L795,598Z" fill="#b9d6f6" stroke="#b9d6f6" stroke-width="1.51"/><path d="M741,-26L585,-27L702,169Z" fill="#dbedfc" stroke="#dbedfc" stroke-width="1.51"/><path d="M664,-132L585,-27L741,-26Z" fill="#ddeefc" stroke="#ddeefc" stroke-width="1.51"/><path d="M1193,287L1368,209L1200,173Z" fill="#e8eef9" stroke="#e8eef9" stroke-width="1.51"/><path d="M1271,552L1266,355L1117,434Z" fill="#bfddf9" stroke="#bfddf9" stroke-width="1.51"/><path d="M1271,552L1117,434L1093,533Z" fill="#b8d6f6" stroke="#b8d6f6" stroke-width="1.51"/><path d="M516,538L439,603L639,689Z" fill="#c3dcf7" stroke="#c3dcf7" stroke-width="1.51"/><path d="M639,689L546,770L706,745Z" fill="#c3def8" stroke="#c3def8" stroke-width="1.51"/><path d="M417,380L439,603L516,538Z" fill="#cbe3f9" stroke="#cbe3f9" stroke-width="1.51"/><path d="M950,776L1129,692L995,624Z" fill="#b2cef3" stroke="#b2cef3" stroke-width="1.51"/><path d="M990,-56L971,-85L892,-79Z" fill="#d7e6f9" stroke="#d7e6f9" stroke-width="1.51"/><path d="M1198,15L1061,-41L1139,110Z" fill="#dce7f8" stroke="#dce7f8" stroke-width="1.51"/><path d="M1061,-41L971,-85L990,-56Z" fill="#d6e5f8" stroke="#d6e5f8" stroke-width="1.51"/><path d="M1129,692L1204,617L1093,533Z" fill="#b6d1f4" stroke="#b6d1f4" stroke-width="1.51"/><path d="M706,745L876,816L795,598Z" fill="#b7d6f6" stroke="#b7d6f6" stroke-width="1.51"/><path d="M950,776L1156,737L1129,692Z" fill="#b9d2f3" stroke="#b9d2f3" stroke-width="1.51"/><path d="M500,161L367,220L486,268Z" fill="#f0f5fa" stroke="#f0f5fa" stroke-width="1.51"/><path d="M417,380L276,522L439,603Z" fill="#d3e7f9" stroke="#d3e7f9" stroke-width="1.51"/><path d="M327,137L367,220L500,161Z" fill="#f6f8fa" stroke="#f6f8fa" stroke-width="1.51"/><path d="M1204,617L1271,552L1093,533Z" fill="#bbd6f6" stroke="#bbd6f6" stroke-width="1.51"/><path d="M1399,609L1271,552L1328,734Z" fill="#cbdef7" stroke="#cbdef7" stroke-width="1.51"/><path d="M439,603L546,770L639,689Z" fill="#c4dbf6" stroke="#c4dbf6" stroke-width="1.51"/><path d="M706,745L819,877L876,816Z" fill="#c8e1fa" stroke="#c8e1fa" stroke-width="1.51"/><path d="M1061,-41L1116,-159L971,-85Z" fill="#d6e4f8" stroke="#d6e4f8" stroke-width="1.51"/><path d="M1200,173L1198,15L1139,110Z" fill="#e0eaf8" stroke="#e0eaf8" stroke-width="1.51"/><path d="M1353,135L1198,15L1200,173Z" fill="#e8effa" stroke="#e8effa" stroke-width="1.51"/><path d="M585,-27L406,-11L500,161Z" fill="#edf4fb" stroke="#edf4fb" stroke-width="1.51"/><path d="M892,-79L664,-132L741,-26Z" fill="#d7eafc" stroke="#d7eafc" stroke-width="1.51"/><path d="M1116,-159L664,-132L892,-79Z" fill="#d7e8fa" stroke="#d7e8fa" stroke-width="1.51"/><path d="M1129,692L1156,737L1204,617Z" fill="#b9d2f3" stroke="#b9d2f3" stroke-width="1.51"/><path d="M993,859L1156,737L950,776Z" fill="#c3d9f5" stroke="#c3d9f5" stroke-width="1.51"/><path d="M664,-132L547,-87L585,-27Z" fill="#e3f0fc" stroke="#e3f0fc" stroke-width="1.51"/><path d="M876,816L993,859L950,776Z" fill="#c9def8" stroke="#c9def8" stroke-width="1.51"/><path d="M677,887L819,877L706,745Z" fill="#cde4fb" stroke="#cde4fb" stroke-width="1.51"/><path d="M367,220L295,415L417,380Z" fill="#e7f1fa" stroke="#e7f1fa" stroke-width="1.51"/><path d="M439,603L449,779L546,770Z" fill="#d0e2f7" stroke="#d0e2f7" stroke-width="1.51"/><path d="M819,877L993,859L876,816Z" fill="#cfe3f9" stroke="#cfe3f9" stroke-width="1.51"/><path d="M178,283L249,426L295,415Z" fill="#e2effa" stroke="#e2effa" stroke-width="1.51"/><path d="M406,-11L327,137L500,161Z" fill="#f5f8fa" stroke="#f5f8fa" stroke-width="1.51"/><path d="M1271,552L1341,509L1266,355Z" fill="#c7e1fa" stroke="#c7e1fa" stroke-width="1.51"/><path d="M1266,355L1368,209L1193,287Z" fill="#e1ecfa" stroke="#e1ecfa" stroke-width="1.51"/><path d="M1399,609L1341,509L1271,552Z" fill="#cce1f9" stroke="#cce1f9" stroke-width="1.51"/><path d="M276,522L347,632L439,603Z" fill="#d5e5f7" stroke="#d5e5f7" stroke-width="1.51"/><path d="M547,-87L406,-11L585,-27Z" fill="#ecf4fc" stroke="#ecf4fc" stroke-width="1.51"/><path d="M574,924L677,887L546,770Z" fill="#ddedfc" stroke="#ddedfc" stroke-width="1.51"/><path d="M546,770L677,887L706,745Z" fill="#cee5fa" stroke="#cee5fa" stroke-width="1.51"/><path d="M347,632L449,779L439,603Z" fill="#cfe0f5" stroke="#cfe0f5" stroke-width="1.51"/><path d="M1415,408L1368,209L1266,355Z" fill="#e2eefb" stroke="#e2eefb" stroke-width="1.51"/><path d="M295,415L276,522L417,380Z" fill="#d7eafa" stroke="#d7eafa" stroke-width="1.51"/><path d="M248,509L276,522L295,415Z" fill="#d5e9fa" stroke="#d5e9fa" stroke-width="1.51"/><path d="M178,283L295,415L367,220Z" fill="#edf4fa" stroke="#edf4fa" stroke-width="1.51"/><path d="M1368,209L1353,135L1200,173Z" fill="#eef2fa" stroke="#eef2fa" stroke-width="1.51"/><path d="M971,-85L1116,-159L892,-79Z" fill="#d6e6f8" stroke="#d6e6f8" stroke-width="1.51"/><path d="M1198,15L1187,-99L1061,-41Z" fill="#dee9f9" stroke="#dee9f9" stroke-width="1.51"/><path d="M1331,-90L1187,-99L1198,15Z" fill="#e8effa" stroke="#e8effa" stroke-width="1.51"/><path d="M1187,-99L1116,-159L1061,-41Z" fill="#dbe7f8" stroke="#dbe7f8" stroke-width="1.51"/><path d="M249,426L248,509L295,415Z" fill="#d6eafb" stroke="#d6eafb" stroke-width="1.51"/><path d="M276,522L182,662L347,632Z" fill="#d5e5f7" stroke="#d5e5f7" stroke-width="1.51"/><path d="M347,632L349,788L449,779Z" fill="#dde7f7" stroke="#dde7f7" stroke-width="1.51"/><path d="M1341,509L1415,408L1266,355Z" fill="#d1e7fb" stroke="#d1e7fb" stroke-width="1.51"/><path d="M1445,13L1363,45L1353,135Z" fill="#f8f9fd" stroke="#f8f9fd" stroke-width="1.51"/><path d="M406,-11L347,-27L327,137Z" fill="#fafafa" stroke="#fafafa" stroke-width="1.51"/><path d="M327,137L178,283L367,220Z" fill="#f9f9f9" stroke="#f9f9f9" stroke-width="1.51"/><path d="M359,-162L347,-27L406,-11Z" fill="#fafafb" stroke="#fafafb" stroke-width="1.51"/><path d="M432,-185L406,-11L547,-87Z" fill="#f1f6fc" stroke="#f1f6fc" stroke-width="1.51"/><path d="M1156,737L1328,734L1204,617Z" fill="#c3d8f5" stroke="#c3d8f5" stroke-width="1.51"/><path d="M1341,509L1481,565L1415,408Z" fill="#d5e9fc" stroke="#d5e9fc" stroke-width="1.51"/><path d="M1144,872L1211,821L1156,737Z" fill="#d1e1f8" stroke="#d1e1f8" stroke-width="1.51"/><path d="M993,859L1144,872L1156,737Z" fill="#cbddf6" stroke="#cbddf6" stroke-width="1.51"/><path d="M1147,1032L1144,872L993,859Z" fill="#d9e6f9" stroke="#d9e6f9" stroke-width="1.51"/><path d="M807,999L993,859L819,877Z" fill="#d8e9fb" stroke="#d8e9fb" stroke-width="1.51"/><path d="M677,887L761,995L819,877Z" fill="#d8ecfd" stroke="#d8ecfd" stroke-width="1.51"/><path d="M468,893L574,924L546,770Z" fill="#e5f0fc" stroke="#e5f0fc" stroke-width="1.51"/><path d="M1353,135L1363,45L1198,15Z" fill="#eff3fb" stroke="#eff3fb" stroke-width="1.51"/><path d="M1187,-99L1331,-90L1116,-159Z" fill="#e5edfa" stroke="#e5edfa" stroke-width="1.51"/><path d="M1534,161L1353,135L1368,209Z" fill="#fafbfc" stroke="#fafbfc" stroke-width="1.51"/><path d="M1328,734L1271,552L1204,617Z" fill="#c4daf6" stroke="#c4daf6" stroke-width="1.51"/><path d="M1336,857L1328,734L1211,821Z" fill="#dee8f9" stroke="#dee8f9" stroke-width="1.51"/><path d="M1211,821L1328,734L1156,737Z" fill="#d0e0f7" stroke="#d0e0f7" stroke-width="1.51"/><path d="M449,779L468,893L546,770Z" fill="#e1edfa" stroke="#e1edfa" stroke-width="1.51"/><path d="M182,662L349,788L347,632Z" fill="#d8e4f6" stroke="#d8e4f6" stroke-width="1.51"/><path d="M382,907L468,893L449,779Z" fill="#eef4fb" stroke="#eef4fb" stroke-width="1.51"/><path d="M172,145L178,283L327,137Z" fill="#fafafa" stroke="#fafafa" stroke-width="1.51"/><path d="M249,426L114,507L248,509Z" fill="#d6e9fb" stroke="#d6e9fb" stroke-width="1.51"/><path d="M563,978L761,995L677,887Z" fill="#ddeffd" stroke="#ddeffd" stroke-width="1.51"/><path d="M563,978L677,887L574,924Z" fill="#e4f1fd" stroke="#e4f1fd" stroke-width="1.51"/><path d="M761,995L807,999L819,877Z" fill="#d8ebfc" stroke="#d8ebfc" stroke-width="1.51"/><path d="M233,-3L172,145L327,137Z" fill="#fafafa" stroke="#fafafa" stroke-width="1.51"/><path d="M664,-132L432,-185L547,-87Z" fill="#e8f3fc" stroke="#e8f3fc" stroke-width="1.51"/><path d="M1116,-159L432,-185L664,-132Z" fill="#d7ebfc" stroke="#d7ebfc" stroke-width="1.51"/><path d="M1144,872L1205,895L1211,821Z" fill="#dde8f9" stroke="#dde8f9" stroke-width="1.51"/><path d="M1147,1032L1205,895L1144,872Z" fill="#e1ebfa" stroke="#e1ebfa" stroke-width="1.51"/><path d="M1363,45L1331,-90L1198,15Z" fill="#eff3fc" stroke="#eff3fc" stroke-width="1.51"/><path d="M761,995L958,1083L807,999Z" fill="#d8eafc" stroke="#d8eafc" stroke-width="1.51"/><path d="M468,893L563,978L574,924Z" fill="#ebf4fd" stroke="#ebf4fd" stroke-width="1.51"/><path d="M492,1059L563,978L468,893Z" fill="#eef5fd" stroke="#eef5fd" stroke-width="1.51"/><path d="M233,-3L327,137L347,-27Z" fill="#fbfbfb" stroke="#fbfbfb" stroke-width="1.51"/><path d="M180,-82L233,-3L347,-27Z" fill="#fbfbfb" stroke="#fbfbfb" stroke-width="1.51"/><path d="M432,-185L359,-162L406,-11Z" fill="#f7f9fb" stroke="#f7f9fb" stroke-width="1.51"/><path d="M1328,734L1454,635L1399,609Z" fill="#d2e2f8" stroke="#d2e2f8" stroke-width="1.51"/><path d="M1399,609L1481,565L1341,509Z" fill="#d4e6fa" stroke="#d4e6fa" stroke-width="1.51"/><path d="M1415,408L1517,222L1368,209Z" fill="#f3f7fd" stroke="#f3f7fd" stroke-width="1.51"/><path d="M1481,797L1454,635L1328,734Z" fill="#dee9f9" stroke="#dee9f9" stroke-width="1.51"/><path d="M1454,635L1481,565L1399,609Z" fill="#d8e7fa" stroke="#d8e7fa" stroke-width="1.51"/><path d="M349,788L382,907L449,779Z" fill="#ecf1fa" stroke="#ecf1fa" stroke-width="1.51"/><path d="M223,822L382,907L349,788Z" fill="#f2f5fa" stroke="#f2f5fa" stroke-width="1.51"/><path d="M248,509L182,662L276,522Z" fill="#d5e6f8" stroke="#d5e6f8" stroke-width="1.51"/><path d="M178,283L113,377L249,426Z" fill="#e4f0fb" stroke="#e4f0fb" stroke-width="1.51"/><path d="M83,228L113,377L178,283Z" fill="#f0f5fb" stroke="#f0f5fb" stroke-width="1.51"/><path d="M114,507L182,662L248,509Z" fill="#d6e7f9" stroke="#d6e7f9" stroke-width="1.51"/><path d="M1363,45L1445,13L1331,-90Z" fill="#f8f9fd" stroke="#f8f9fd" stroke-width="1.51"/><path d="M1529,387L1517,222L1415,408Z" fill="#eaf4fd" stroke="#eaf4fd" stroke-width="1.51"/><path d="M1481,565L1529,387L1415,408Z" fill="#d8ecfd" stroke="#d8ecfd" stroke-width="1.51"/><path d="M1534,161L1445,13L1353,135Z" fill="#fdfdfd" stroke="#fdfdfd" stroke-width="1.51"/><path d="M1205,895L1336,857L1211,821Z" fill="#e3ecfa" stroke="#e3ecfa" stroke-width="1.51"/><path d="M113,377L114,507L249,426Z" fill="#d8ebfb" stroke="#d8ebfb" stroke-width="1.51"/><path d="M1517,222L1534,161L1368,209Z" fill="#fcfcfc" stroke="#fcfcfc" stroke-width="1.51"/><path d="M1587,178L1534,161L1517,222Z" fill="#fcfcfc" stroke="#fcfcfc" stroke-width="1.51"/><path d="M807,999L958,1083L993,859Z" fill="#d8e8fa" stroke="#d8e8fa" stroke-width="1.51"/><path d="M1205,895L1264,980L1336,857Z" fill="#ecf2fc" stroke="#ecf2fc" stroke-width="1.51"/><path d="M492,1059L958,1083L761,995Z" fill="#d8ecfd" stroke="#d8ecfd" stroke-width="1.51"/><path d="M172,145L83,228L178,283Z" fill="#fafafa" stroke="#fafafa" stroke-width="1.51"/><path d="M-73,509L55,689L114,507Z" fill="#d7e7fa" stroke="#d7e7fa" stroke-width="1.51"/><path d="M115,74L83,228L172,145Z" fill="#fbfbfb" stroke="#fbfbfb" stroke-width="1.51"/><path d="M958,1083L1147,1032L993,859Z" fill="#d7e6f9" stroke="#d7e6f9" stroke-width="1.51"/><path d="M88,12L115,74L233,-3Z" fill="#fcfcfc" stroke="#fcfcfc" stroke-width="1.51"/><path d="M233,-3L115,74L172,145Z" fill="#fbfbfb" stroke="#fbfbfb" stroke-width="1.51"/><path d="M182,662L223,822L349,788Z" fill="#e3ecf8" stroke="#e3ecf8" stroke-width="1.51"/><path d="M55,689L223,822L182,662Z" fill="#dee8f8" stroke="#dee8f8" stroke-width="1.51"/><path d="M1147,1032L1264,980L1205,895Z" fill="#e5eefb" stroke="#e5eefb" stroke-width="1.51"/><path d="M1529,387L1583,246L1517,222Z" fill="#f3f8fd" stroke="#f3f8fd" stroke-width="1.51"/><path d="M1680,434L1583,246L1529,387Z" fill="#e7f3fd" stroke="#e7f3fd" stroke-width="1.51"/><path d="M359,-162L180,-82L347,-27Z" fill="#fbfbfb" stroke="#fbfbfb" stroke-width="1.51"/><path d="M563,978L492,1059L761,995Z" fill="#e4f1fd" stroke="#e4f1fd" stroke-width="1.51"/><path d="M382,907L492,1059L468,893Z" fill="#f4f8fd" stroke="#f4f8fd" stroke-width="1.51"/><path d="M356,1035L492,1059L382,907Z" fill="#f7fafc" stroke="#f7fafc" stroke-width="1.51"/><path d="M1534,161L1574,-11L1445,13Z" fill="#fdfdfd" stroke="#fdfdfd" stroke-width="1.51"/><path d="M1583,246L1587,178L1517,222Z" fill="#fcfcfc" stroke="#fcfcfc" stroke-width="1.51"/><path d="M1481,565L1586,547L1529,387Z" fill="#d8ebfc" stroke="#d8ebfc" stroke-width="1.51"/><path d="M1583,246L1704,234L1587,178Z" fill="#fcfcfc" stroke="#fcfcfc" stroke-width="1.51"/><path d="M1620,675L1586,547L1481,565Z" fill="#d8e7fa" stroke="#d8e7fa" stroke-width="1.51"/><path d="M1620,675L1481,565L1454,635Z" fill="#d7e6f9" stroke="#d7e6f9" stroke-width="1.51"/><path d="M1481,797L1328,734L1336,857Z" fill="#e6eefb" stroke="#e6eefb" stroke-width="1.51"/><path d="M1539,952L1481,797L1336,857Z" fill="#fafbfe" stroke="#fafbfe" stroke-width="1.51"/><path d="M180,-82L88,12L233,-3Z" fill="#fcfcfc" stroke="#fcfcfc" stroke-width="1.51"/><path d="M115,74L-13,216L83,228Z" fill="#fbfbfb" stroke="#fbfbfb" stroke-width="1.51"/><path d="M205,955L356,1035L382,907Z" fill="#fcfcfc" stroke="#fcfcfc" stroke-width="1.51"/><path d="M1264,980L1313,1014L1336,857Z" fill="#f0f5fd" stroke="#f0f5fd" stroke-width="1.51"/><path d="M1147,1032L1313,1014L1264,980Z" fill="#e9f0fb" stroke="#e9f0fb" stroke-width="1.51"/><path d="M958,1083L1313,1014L1147,1032Z" fill="#dee9f9" stroke="#dee9f9" stroke-width="1.51"/><path d="M114,507L55,689L182,662Z" fill="#d6e5f8" stroke="#d6e5f8" stroke-width="1.51"/><path d="M223,822L205,955L382,907Z" fill="#fcfcfc" stroke="#fcfcfc" stroke-width="1.51"/><path d="M-78,421L114,507L113,377Z" fill="#d9ecfc" stroke="#d9ecfc" stroke-width="1.51"/><path d="M-13,216L113,377L83,228Z" fill="#f3f7fb" stroke="#f3f7fb" stroke-width="1.51"/><path d="M1587,178L1574,-11L1534,161Z" fill="#fdfdfd" stroke="#fdfdfd" stroke-width="1.51"/><path d="M1445,13L1498,-163L1331,-90Z" fill="#fdfdfe" stroke="#fdfdfe" stroke-width="1.51"/><path d="M-67,71L-13,216L115,74Z" fill="#fcfcfc" stroke="#fcfcfc" stroke-width="1.51"/><path d="M1481,797L1580,718L1454,635Z" fill="#dfe9fa" stroke="#dfe9fa" stroke-width="1.51"/><path d="M1659,946L1580,718L1481,797Z" fill="#f1f5fd" stroke="#f1f5fd" stroke-width="1.51"/><path d="M1574,-11L1498,-163L1445,13Z" fill="#fefefe" stroke="#fefefe" stroke-width="1.51"/><path d="M1331,-90L1498,-163L1116,-159Z" fill="#f1f5fc" stroke="#f1f5fc" stroke-width="1.51"/><path d="M1116,-159L1498,-163L432,-185Z" fill="#d6e5f8" stroke="#d6e5f8" stroke-width="1.51"/><path d="M44,957L205,955L223,822Z" fill="#fdfdfd" stroke="#fdfdfd" stroke-width="1.51"/><path d="M1580,718L1620,675L1454,635Z" fill="#d7e5f8" stroke="#d7e5f8" stroke-width="1.51"/><path d="M1586,547L1680,434L1529,387Z" fill="#d8ecfd" stroke="#d8ecfd" stroke-width="1.51"/><path d="M1733,667L1620,675L1750,718Z" fill="#d9e6f9" stroke="#d9e6f9" stroke-width="1.51"/><path d="M1803,506L1680,434L1586,547Z" fill="#d8ebfc" stroke="#d8ebfc" stroke-width="1.51"/><path d="M1587,178L1712,108L1574,-11Z" fill="#fdfdfd" stroke="#fdfdfd" stroke-width="1.51"/><path d="M88,12L-67,71L115,74Z" fill="#fcfcfc" stroke="#fcfcfc" stroke-width="1.51"/><path d="M180,-82L121,-185L88,12Z" fill="#fcfcfc" stroke="#fcfcfc" stroke-width="1.51"/><path d="M359,-162L121,-185L180,-82Z" fill="#fcfcfc" stroke="#fcfcfc" stroke-width="1.51"/><path d="M432,-185L121,-185L359,-162Z" fill="#fbfbfb" stroke="#fbfbfb" stroke-width="1.51"/><path d="M1680,434L1704,234L1583,246Z" fill="#f0f6fd" stroke="#f0f6fd" stroke-width="1.51"/><path d="M1574,-11L1679,-91L1498,-163Z" fill="#fefefe" stroke="#fefefe" stroke-width="1.51"/><path d="M-13,216L-78,421L113,377Z" fill="#e9f3fc" stroke="#e9f3fc" stroke-width="1.51"/><path d="M-78,421L-73,509L114,507Z" fill="#d7eafc" stroke="#d7eafc" stroke-width="1.51"/><path d="M55,689L17,785L223,822Z" fill="#e6eefa" stroke="#e6eefa" stroke-width="1.51"/><path d="M-112,596L17,785L55,689Z" fill="#d9e5f8" stroke="#d9e5f8" stroke-width="1.51"/><path d="M1704,234L1712,108L1587,178Z" fill="#fcfcfc" stroke="#fcfcfc" stroke-width="1.51"/><path d="M118,1084L207,1046L205,955Z" fill="#fdfdfd" stroke="#fdfdfd" stroke-width="1.51"/><path d="M205,955L207,1046L356,1035Z" fill="#fcfcfc" stroke="#fcfcfc" stroke-width="1.51"/><path d="M356,1035L118,1084L492,1059Z" fill="#fcfcfc" stroke="#fcfcfc" stroke-width="1.51"/><path d="M492,1059L118,1084L958,1083Z" fill="#ecf5fd" stroke="#ecf5fd" stroke-width="1.51"/><path d="M-13,216L-216,305L-78,421Z" fill="#edf5fc" stroke="#edf5fc" stroke-width="1.51"/><path d="M-100,-25L-67,71L88,12Z" fill="#fdfdfd" stroke="#fdfdfd" stroke-width="1.51"/><path d="M1501,1019L1539,952L1336,857Z" fill="#ffffff" stroke="#ffffff" stroke-width="1.51"/><path d="M1313,1014L1501,1019L1336,857Z" fill="#f9fbfe" stroke="#f9fbfe" stroke-width="1.51"/><path d="M958,1083L1501,1019L1313,1014Z" fill="#ebf1fc" stroke="#ebf1fc" stroke-width="1.51"/><path d="M-73,509L-112,596L55,689Z" fill="#d7e6f9" stroke="#d7e6f9" stroke-width="1.51"/><path d="M-213,503L-112,596L-73,509Z" fill="#d7e8fa" stroke="#d7e8fa" stroke-width="1.51"/><path d="M-213,503L-73,509L-78,421Z" fill="#d7eafc" stroke="#d7eafc" stroke-width="1.51"/><path d="M1750,718L1620,675L1580,718Z" fill="#dde8f9" stroke="#dde8f9" stroke-width="1.51"/><path d="M1620,675L1733,667L1586,547Z" fill="#d7e6f9" stroke="#d7e6f9" stroke-width="1.51"/><path d="M1680,434L1796,381L1704,234Z" fill="#e8f3fd" stroke="#e8f3fd" stroke-width="1.51"/><path d="M1704,234L1796,381L1712,108Z" fill="#f9fbfc" stroke="#f9fbfc" stroke-width="1.51"/><path d="M1750,718L1580,718L1659,946Z" fill="#edf2fc" stroke="#edf2fc" stroke-width="1.51"/><path d="M1712,108L1679,-91L1574,-11Z" fill="#fefefe" stroke="#fefefe" stroke-width="1.51"/><path d="M1803,506L1796,381L1680,434Z" fill="#daedfd" stroke="#daedfd" stroke-width="1.51"/><path d="M1712,108L1809,-21L1679,-91Z" fill="#fefefe" stroke="#fefefe" stroke-width="1.51"/><path d="M17,785L44,957L223,822Z" fill="#f6f8fc" stroke="#f6f8fc" stroke-width="1.51"/><path d="M-100,948L44,957L17,785Z" fill="#fefdfe" stroke="#fefdfe" stroke-width="1.51"/><path d="M-67,71L-161,171L-13,216Z" fill="#fbfbfb" stroke="#fbfbfb" stroke-width="1.51"/><path d="M121,-185L-100,-25L88,12Z" fill="#fdfdfd" stroke="#fdfdfd" stroke-width="1.51"/><path d="M1733,667L1803,506L1586,547Z" fill="#d8e8fb" stroke="#d8e8fb" stroke-width="1.51"/><path d="M-135,49L-161,171L-67,71Z" fill="#fcfcfc" stroke="#fcfcfc" stroke-width="1.51"/><path d="M1733,667L1750,718L1803,506Z" fill="#d7e6f9" stroke="#d7e6f9" stroke-width="1.51"/><path d="M1659,946L1481,797L1539,952Z" fill="#ffffff" stroke="#ffffff" stroke-width="1.51"/><path d="M-100,-25L-135,49L-67,71Z" fill="#fcfcfc" stroke="#fcfcfc" stroke-width="1.51"/><path d="M44,957L118,1084L205,955Z" fill="#fdfdfd" stroke="#fdfdfd" stroke-width="1.51"/><path d="M207,1046L118,1084L356,1035Z" fill="#fcfcfc" stroke="#fcfcfc" stroke-width="1.51"/><path d="M1679,1014L1659,946L1539,952Z" fill="#ffffff" stroke="#ffffff" stroke-width="1.51"/><path d="M-232,330L-216,305L-161,171Z" fill="#f4f8fb" stroke="#f4f8fb" stroke-width="1.51"/><path d="M-161,171L-216,305L-13,216Z" fill="#fafafb" stroke="#fafafb" stroke-width="1.51"/><path d="M-193,735L-111,825L17,785Z" fill="#e9f0fb" stroke="#e9f0fb" stroke-width="1.51"/><path d="M-232,330L-213,503L-78,421Z" fill="#dcedfc" stroke="#dcedfc" stroke-width="1.51"/><path d="M44,957L-93,982L118,1084Z" fill="#fefefe" stroke="#fefefe" stroke-width="1.51"/><path d="M-193,735L17,785L-112,596Z" fill="#dce7f8" stroke="#dce7f8" stroke-width="1.51"/><path d="M-216,305L-232,330L-78,421Z" fill="#e7f2fc" stroke="#e7f2fc" stroke-width="1.51"/><path d="M-143,-101L-232,330L-161,171Z" fill="#fcfcfc" stroke="#fcfcfc" stroke-width="1.51"/><path d="M1803,506L1809,-21L1796,381Z" fill="#f2f7fd" stroke="#f2f7fd" stroke-width="1.51"/><path d="M1796,381L1809,-21L1712,108Z" fill="#fcfcfc" stroke="#fcfcfc" stroke-width="1.51"/><path d="M-109,-187L-143,-101L-100,-25Z" fill="#fdfdfd" stroke="#fdfdfd" stroke-width="1.51"/><path d="M-100,-25L-143,-101L-135,49Z" fill="#fdfdfd" stroke="#fdfdfd" stroke-width="1.51"/><path d="M-135,49L-143,-101L-161,171Z" fill="#fcfcfc" stroke="#fcfcfc" stroke-width="1.51"/><path d="M121,-185L-109,-187L-100,-25Z" fill="#fdfdfd" stroke="#fdfdfd" stroke-width="1.51"/><path d="M432,-185L-109,-187L121,-185Z" fill="#fcfcfc" stroke="#fcfcfc" stroke-width="1.51"/><path d="M1809,-21L1777,-135L1679,-91Z" fill="#fefefe" stroke="#fefefe" stroke-width="1.51"/><path d="M1679,-91L1777,-135L1498,-163Z" fill="#fefefe" stroke="#fefefe" stroke-width="1.51"/><path d="M-232,636L-193,735L-112,596Z" fill="#d6e4f8" stroke="#d6e4f8" stroke-width="1.51"/><path d="M-111,825L-100,948L17,785Z" fill="#f6f8fd" stroke="#f6f8fd" stroke-width="1.51"/><path d="M-232,636L-112,596L-213,503Z" fill="#d7e7f9" stroke="#d7e7f9" stroke-width="1.51"/><path d="M1659,946L1787,893L1750,718Z" fill="#f7f9fe" stroke="#f7f9fe" stroke-width="1.51"/><path d="M1750,718L1787,893L1803,506Z" fill="#dde8f9" stroke="#dde8f9" stroke-width="1.51"/><path d="M1501,1019L1679,1014L1539,952Z" fill="#ffffff" stroke="#ffffff" stroke-width="1.51"/><path d="M1747,1069L1679,1014L1501,1019Z" fill="#ffffff" stroke="#ffffff" stroke-width="1.51"/><path d="M-232,330L-232,636L-213,503Z" fill="#d7eafb" stroke="#d7eafb" stroke-width="1.51"/><path d="M-164,905L-100,948L-111,825Z" fill="#fdfdfe" stroke="#fdfdfe" stroke-width="1.51"/><path d="M1679,1014L1787,893L1659,946Z" fill="#ffffff" stroke="#ffffff" stroke-width="1.51"/><path d="M-100,948L-93,982L44,957Z" fill="#fefefe" stroke="#fefefe" stroke-width="1.51"/><path d="M-164,905L-93,982L-100,948Z" fill="#fefefe" stroke="#fefefe" stroke-width="1.51"/><path d="M-204,1052L-164,905L-193,735Z" fill="#fefdfe" stroke="#fefdfe" stroke-width="1.51"/><path d="M-193,735L-164,905L-111,825Z" fill="#f1f5fc" stroke="#f1f5fc" stroke-width="1.51"/><path d="M1679,1014L1747,1069L1787,893Z" fill="#ffffff" stroke="#ffffff" stroke-width="1.51"/><path d="M958,1083L1747,1069L1501,1019Z" fill="#fbfcff" stroke="#fbfcff" stroke-width="1.51"/><path d="M-164,905L-204,1052L-93,982Z" fill="#fefefe" stroke="#fefefe" stroke-width="1.51"/><path d="M-93,982L-204,1052L118,1084Z" fill="#fefefe" stroke="#fefefe" stroke-width="1.51"/><path d="M-232,636L-204,1052L-193,735Z" fill="#eef3fb" stroke="#eef3fb" stroke-width="1.51"/></svg>