<svg xmlns="http://www.w3.org/2000/svg" width="1440" height="900"><path d="M828,346L866,95L773,306Z" fill="#d1e6f9" stroke="#d1e6f9" stroke-width="1.51"/><path d="M866,95L714,186L773,306Z" fill="#d5e8fa" stroke="#d5e8fa" stroke-width="1.51"/><path d="M828,346L1104,154L866,95Z" fill="#d5e5f7" stroke="#d5e5f7" stroke-width="1.51"/><path d="M1104,154L944,-15L866,95Z" fill="#d6e6f8" stroke="#d6e6f8" stroke-width="1.51"/><path d="M866,95L742,-52L714,186Z" fill="#d6eafb" stroke="#d6eafb" stroke-width="1.51"/><path d="M714,186L601,228L773,306Z" fill="#d5e9fa" stroke="#d5e9fa" stroke-width="1.51"/><path d="M773,306L668,586L828,346Z" fill="#b5dbfb" stroke="#b5dbfb" stroke-width="1.51"/><path d="M499,22L601,228L714,186Z" fill="#e1effa" stroke="#e1effa" stroke-width="1.51"/><path d="M601,228L599,349L773,306Z" fill="#d0e7fb" stroke="#d0e7fb" stroke-width="1.51"/><path d="M944,-15L742,-52L866,95Z" fill="#d7e9fa" stroke="#d7e9fa" stroke-width="1.51"/><path d="M944,-15L981,-199L742,-52Z" fill="#d7e8fa" stroke="#d7e8fa" stroke-width="1.51"/><path d="M1104,154L1077,-10L944,-15Z" fill="#d6e4f7" stroke="#d6e4f7" stroke-width="1.51"/><path d="M828,346L1140,393L1104,154Z" fill="#c8def7" stroke="#c8def7" stroke-width="1.51"/><path d="M964,594L1140,393L828,346Z" fill="#afd5f7" stroke="#afd5f7" stroke-width="1.51"/><path d="M1140,393L1218,351L1104,154Z" fill="#d0e2f7" stroke="#d0e2f7" stroke-width="1.51"/><path d="M1104,154L1293,-80L1077,-10Z" fill="#dfe9f9" stroke="#dfe9f9" stroke-width="1.51"/><path d="M668,586L964,594L828,346Z" fill="#aed6f8" stroke="#aed6f8" stroke-width="1.51"/><path d="M1140,393L1259,573L1218,351Z" fill="#bfdcf9" stroke="#bfdcf9" stroke-width="1.51"/><path d="M599,349L668,586L773,306Z" fill="#b9defb" stroke="#b9defb" stroke-width="1.51"/><path d="M964,594L1032,610L1140,393Z" fill="#aed0f4" stroke="#aed0f4" stroke-width="1.51"/><path d="M1087,697L1032,610L943,749Z" fill="#b0cdf3" stroke="#b0cdf3" stroke-width="1.51"/><path d="M742,-52L499,22L714,186Z" fill="#ddeefc" stroke="#ddeefc" stroke-width="1.51"/><path d="M601,228L321,235L599,349Z" fill="#e4effa" stroke="#e4effa" stroke-width="1.51"/><path d="M599,349L504,569L668,586Z" fill="#bcdefa" stroke="#bcdefa" stroke-width="1.51"/><path d="M1077,-10L981,-199L944,-15Z" fill="#d6e5f8" stroke="#d6e5f8" stroke-width="1.51"/><path d="M742,-52L491,-177L499,22Z" fill="#e5f1fc" stroke="#e5f1fc" stroke-width="1.51"/><path d="M1531,432L1351,233L1218,351Z" fill="#e2eefb" stroke="#e2eefb" stroke-width="1.51"/><path d="M1218,351L1351,233L1104,154Z" fill="#e1ebf8" stroke="#e1ebf8" stroke-width="1.51"/><path d="M1077,-10L1063,-264L981,-199Z" fill="#d6e5f8" stroke="#d6e5f8" stroke-width="1.51"/><path d="M981,-199L760,-247L742,-52Z" fill="#d7e9fb" stroke="#d7e9fb" stroke-width="1.51"/><path d="M267,372L504,569L599,349Z" fill="#cee7fb" stroke="#cee7fb" stroke-width="1.51"/><path d="M1351,233L1293,-80L1104,154Z" fill="#e8effa" stroke="#e8effa" stroke-width="1.51"/><path d="M1032,610L1259,573L1140,393Z" fill="#b6d5f6" stroke="#b6d5f6" stroke-width="1.51"/><path d="M943,749L1032,610L964,594Z" fill="#aecef3" stroke="#aecef3" stroke-width="1.51"/><path d="M943,749L964,594L668,586Z" fill="#aed0f4" stroke="#aed0f4" stroke-width="1.51"/><path d="M1242,652L1259,573L1032,610Z" fill="#bad4f5" stroke="#bad4f5" stroke-width="1.51"/><path d="M1293,-80L1063,-264L1077,-10Z" fill="#dee8f9" stroke="#dee8f9" stroke-width="1.51"/><path d="M981,-199L1063,-264L760,-247Z" fill="#d7e7f9" stroke="#d7e7f9" stroke-width="1.51"/><path d="M641,741L943,749L668,586Z" fill="#b1d4f6" stroke="#b1d4f6" stroke-width="1.51"/><path d="M499,22L321,235L601,228Z" fill="#eff4fa" stroke="#eff4fa" stroke-width="1.51"/><path d="M491,-177L406,-29L499,22Z" fill="#f1f6fc" stroke="#f1f6fc" stroke-width="1.51"/><path d="M406,-29L321,235L499,22Z" fill="#f6f8fb" stroke="#f6f8fb" stroke-width="1.51"/><path d="M760,-247L491,-177L742,-52Z" fill="#ddeefc" stroke="#ddeefc" stroke-width="1.51"/><path d="M1087,697L1242,652L1032,610Z" fill="#b3cef3" stroke="#b3cef3" stroke-width="1.51"/><path d="M1534,226L1465,2L1351,233Z" fill="#fcfcfc" stroke="#fcfcfc" stroke-width="1.51"/><path d="M1449,689L1242,652L1406,894Z" fill="#dce7f9" stroke="#dce7f9" stroke-width="1.51"/><path d="M504,569L641,741L668,586Z" fill="#bbd9f7" stroke="#bbd9f7" stroke-width="1.51"/><path d="M321,235L267,372L599,349Z" fill="#e7f1fa" stroke="#e7f1fa" stroke-width="1.51"/><path d="M504,569L564,801L641,741Z" fill="#c4dcf7" stroke="#c4dcf7" stroke-width="1.51"/><path d="M107,283L267,372L321,235Z" fill="#eef4fa" stroke="#eef4fa" stroke-width="1.51"/><path d="M1351,233L1465,2L1293,-80Z" fill="#f6f8fc" stroke="#f6f8fc" stroke-width="1.51"/><path d="M1293,-80L1358,-261L1063,-264Z" fill="#e8effa" stroke="#e8effa" stroke-width="1.51"/><path d="M1420,558L1218,351L1259,573Z" fill="#c8e0fa" stroke="#c8e0fa" stroke-width="1.51"/><path d="M1242,652L1420,558L1259,573Z" fill="#c9ddf8" stroke="#c9ddf8" stroke-width="1.51"/><path d="M491,-177L405,-217L406,-29Z" fill="#f4f8fb" stroke="#f4f8fb" stroke-width="1.51"/><path d="M97,234L107,283L321,235Z" fill="#f6f8fa" stroke="#f6f8fa" stroke-width="1.51"/><path d="M760,-247L405,-217L491,-177Z" fill="#e8f2fc" stroke="#e8f2fc" stroke-width="1.51"/><path d="M412,805L564,801L504,569Z" fill="#d0e1f7" stroke="#d0e1f7" stroke-width="1.51"/><path d="M743,900L845,910L943,749Z" fill="#cfe4fa" stroke="#cfe4fa" stroke-width="1.51"/><path d="M1531,432L1534,226L1351,233Z" fill="#f1f7fd" stroke="#f1f7fd" stroke-width="1.51"/><path d="M1465,2L1443,-143L1293,-80Z" fill="#fafbfe" stroke="#fafbfe" stroke-width="1.51"/><path d="M1595,6L1443,-143L1465,2Z" fill="#fefefe" stroke="#fefefe" stroke-width="1.51"/><path d="M1443,-143L1358,-261L1293,-80Z" fill="#f6f8fd" stroke="#f6f8fd" stroke-width="1.51"/><path d="M1129,983L1201,920L1087,697Z" fill="#d8e5f8" stroke="#d8e5f8" stroke-width="1.51"/><path d="M1242,652L1449,689L1420,558Z" fill="#d0e1f8" stroke="#d0e1f8" stroke-width="1.51"/><path d="M743,900L943,749L641,741Z" fill="#c5dff9" stroke="#c5dff9" stroke-width="1.51"/><path d="M564,801L743,900L641,741Z" fill="#d0e5fb" stroke="#d0e5fb" stroke-width="1.51"/><path d="M267,372L230,468L504,569Z" fill="#d5e9fa" stroke="#d5e9fa" stroke-width="1.51"/><path d="M107,283L230,468L267,372Z" fill="#e2effb" stroke="#e2effb" stroke-width="1.51"/><path d="M1420,558L1531,432L1218,351Z" fill="#d3e9fc" stroke="#d3e9fc" stroke-width="1.51"/><path d="M230,468L306,621L504,569Z" fill="#d5e6f8" stroke="#d5e6f8" stroke-width="1.51"/><path d="M1201,920L1242,652L1087,697Z" fill="#c9dbf6" stroke="#c9dbf6" stroke-width="1.51"/><path d="M1420,558L1729,558L1531,432Z" fill="#d8eafc" stroke="#d8eafc" stroke-width="1.51"/><path d="M306,621L412,805L504,569Z" fill="#d0e0f5" stroke="#d0e0f5" stroke-width="1.51"/><path d="M564,801L537,993L743,900Z" fill="#e2f1fd" stroke="#e2f1fd" stroke-width="1.51"/><path d="M1443,-143L1718,-127L1358,-261Z" fill="#fefefe" stroke="#fefefe" stroke-width="1.51"/><path d="M1534,226L1595,6L1465,2Z" fill="#fdfdfd" stroke="#fdfdfd" stroke-width="1.51"/><path d="M1666,126L1595,6L1534,226Z" fill="#fdfdfd" stroke="#fdfdfd" stroke-width="1.51"/><path d="M1129,983L1087,697L943,749Z" fill="#c7dbf6" stroke="#c7dbf6" stroke-width="1.51"/><path d="M36,674L182,753L306,621Z" fill="#d7e4f6" stroke="#d7e4f6" stroke-width="1.51"/><path d="M306,621L182,753L412,805Z" fill="#dee8f7" stroke="#dee8f7" stroke-width="1.51"/><path d="M97,234L321,235L82,56Z" fill="#fafafa" stroke="#fafafa" stroke-width="1.51"/><path d="M82,56L321,235L406,-29Z" fill="#fafafa" stroke="#fafafa" stroke-width="1.51"/><path d="M1676,381L1534,226L1531,432Z" fill="#e9f3fd" stroke="#e9f3fd" stroke-width="1.51"/><path d="M1676,381L1666,126L1534,226Z" fill="#f9fafc" stroke="#f9fafc" stroke-width="1.51"/><path d="M1061,1033L943,749L845,910Z" fill="#d7e7fa" stroke="#d7e7fa" stroke-width="1.51"/><path d="M1061,1033L1129,983L943,749Z" fill="#d7e5f9" stroke="#d7e5f9" stroke-width="1.51"/><path d="M80,-275L82,56L406,-29Z" fill="#fcfcfc" stroke="#fcfcfc" stroke-width="1.51"/><path d="M1729,558L1676,381L1531,432Z" fill="#d8ecfd" stroke="#d8ecfd" stroke-width="1.51"/><path d="M987,1139L1061,1033L845,910Z" fill="#d8e7fa" stroke="#d8e7fa" stroke-width="1.51"/><path d="M746,1126L845,910L743,900Z" fill="#d8ebfc" stroke="#d8ebfc" stroke-width="1.51"/><path d="M412,805L537,993L564,801Z" fill="#e8f1fc" stroke="#e8f1fc" stroke-width="1.51"/><path d="M1449,689L1729,558L1420,558Z" fill="#d8e7fa" stroke="#d8e7fa" stroke-width="1.51"/><path d="M1201,920L1406,894L1242,652Z" fill="#e0eafa" stroke="#e0eafa" stroke-width="1.51"/><path d="M1312,1073L1406,894L1201,920Z" fill="#f1f5fd" stroke="#f1f5fd" stroke-width="1.51"/><path d="M1312,1073L1201,920L1129,983Z" fill="#e6eefb" stroke="#e6eefb" stroke-width="1.51"/><path d="M412,805L315,992L537,993Z" fill="#f6f9fc" stroke="#f6f9fc" stroke-width="1.51"/><path d="M36,674L306,621L230,468Z" fill="#d6e6f8" stroke="#d6e6f8" stroke-width="1.51"/><path d="M-42,464L230,468L107,283Z" fill="#deeefc" stroke="#deeefc" stroke-width="1.51"/><path d="M182,753L220,843L412,805Z" fill="#ebf1fa" stroke="#ebf1fa" stroke-width="1.51"/><path d="M541,1124L746,1126L537,993Z" fill="#e4f1fd" stroke="#e4f1fd" stroke-width="1.51"/><path d="M537,993L746,1126L743,900Z" fill="#ddeefd" stroke="#ddeefd" stroke-width="1.51"/><path d="M1666,126L1718,-127L1595,6Z" fill="#fefefe" stroke="#fefefe" stroke-width="1.51"/><path d="M1595,6L1718,-127L1443,-143Z" fill="#fefefe" stroke="#fefefe" stroke-width="1.51"/><path d="M1729,558L1718,-127L1666,126Z" fill="#fcfcfc" stroke="#fcfcfc" stroke-width="1.51"/><path d="M1676,381L1729,558L1666,126Z" fill="#e7f3fd" stroke="#e7f3fd" stroke-width="1.51"/><path d="M1653,808L1729,558L1449,689Z" fill="#d9e6f9" stroke="#d9e6f9" stroke-width="1.51"/><path d="M746,1126L987,1139L845,910Z" fill="#d8e9fb" stroke="#d8e9fb" stroke-width="1.51"/><path d="M1061,1033L1312,1073L1129,983Z" fill="#e1ebfa" stroke="#e1ebfa" stroke-width="1.51"/><path d="M1358,-261L80,-275L1063,-264Z" fill="#d7e9fb" stroke="#d7e9fb" stroke-width="1.51"/><path d="M1063,-264L80,-275L760,-247Z" fill="#e0effc" stroke="#e0effc" stroke-width="1.51"/><path d="M760,-247L80,-275L405,-217Z" fill="#f6f8fb" stroke="#f6f8fb" stroke-width="1.51"/><path d="M405,-217L80,-275L406,-29Z" fill="#fbfbfb" stroke="#fbfbfb" stroke-width="1.51"/><path d="M1406,894L1577,851L1449,689Z" fill="#f0f4fd" stroke="#f0f4fd" stroke-width="1.51"/><path d="M1528,1051L1577,851L1406,894Z" fill="#ffffff" stroke="#ffffff" stroke-width="1.51"/><path d="M-90,325L-42,464L107,283Z" fill="#e6f2fc" stroke="#e6f2fc" stroke-width="1.51"/><path d="M182,753L-57,970L220,843Z" fill="#f6f8fc" stroke="#f6f8fc" stroke-width="1.51"/><path d="M-90,325L107,283L97,234Z" fill="#f2f7fc" stroke="#f2f7fc" stroke-width="1.51"/><path d="M-103,91L97,234L82,56Z" fill="#fcfcfc" stroke="#fcfcfc" stroke-width="1.51"/><path d="M220,843L315,992L412,805Z" fill="#f9f9fb" stroke="#f9f9fb" stroke-width="1.51"/><path d="M175,1066L315,992L220,843Z" fill="#fcfcfc" stroke="#fcfcfc" stroke-width="1.51"/><path d="M-42,464L36,674L230,468Z" fill="#d6e8fa" stroke="#d6e8fa" stroke-width="1.51"/><path d="M4,-203L-53,10L82,56Z" fill="#fdfdfd" stroke="#fdfdfd" stroke-width="1.51"/><path d="M987,1139L1312,1073L1061,1033Z" fill="#dce8f9" stroke="#dce8f9" stroke-width="1.51"/><path d="M391,1107L541,1124L537,993Z" fill="#eff6fd" stroke="#eff6fd" stroke-width="1.51"/><path d="M746,1126L541,1124L987,1139Z" fill="#d8ebfd" stroke="#d8ebfd" stroke-width="1.51"/><path d="M-103,91L-90,325L97,234Z" fill="#fbfbfb" stroke="#fbfbfb" stroke-width="1.51"/><path d="M80,-275L4,-203L82,56Z" fill="#fcfcfc" stroke="#fcfcfc" stroke-width="1.51"/><path d="M1694,1166L1653,808L1577,851Z" fill="#ffffff" stroke="#ffffff" stroke-width="1.51"/><path d="M1577,851L1653,808L1449,689Z" fill="#ebf1fc" stroke="#ebf1fc" stroke-width="1.51"/><path d="M-140,58L-103,91L-53,10Z" fill="#fcfcfc" stroke="#fcfcfc" stroke-width="1.51"/><path d="M-53,10L-103,91L82,56Z" fill="#fcfcfc" stroke="#fcfcfc" stroke-width="1.51"/><path d="M315,992L391,1107L537,993Z" fill="#f7f9fc" stroke="#f7f9fc" stroke-width="1.51"/><path d="M175,1066L391,1107L315,992Z" fill="#fcfcfc" stroke="#fcfcfc" stroke-width="1.51"/><path d="M-152,-158L-140,58L-53,10Z" fill="#fdfdfd" stroke="#fdfdfd" stroke-width="1.51"/><path d="M-103,91L-177,235L-90,325Z" fill="#fbfbfb" stroke="#fbfbfb" stroke-width="1.51"/><path d="M-140,58L-177,235L-103,91Z" fill="#fcfcfc" stroke="#fcfcfc" stroke-width="1.51"/><path d="M-90,325L-257,428L-42,464Z" fill="#deeefc" stroke="#deeefc" stroke-width="1.51"/><path d="M-42,464L-254,714L36,674Z" fill="#d7e6f9" stroke="#d7e6f9" stroke-width="1.51"/><path d="M1312,1073L1528,1051L1406,894Z" fill="#fdfdff" stroke="#fdfdff" stroke-width="1.51"/><path d="M1694,1166L1528,1051L1312,1073Z" fill="#ffffff" stroke="#ffffff" stroke-width="1.51"/><path d="M-57,970L182,753L36,674Z" fill="#ecf1fb" stroke="#ecf1fb" stroke-width="1.51"/><path d="M-57,970L175,1066L220,843Z" fill="#fdfdfd" stroke="#fdfdfd" stroke-width="1.51"/><path d="M-140,58L-152,-158L-177,235Z" fill="#fcfcfc" stroke="#fcfcfc" stroke-width="1.51"/><path d="M4,-203L-152,-158L-53,10Z" fill="#fdfdfd" stroke="#fdfdfd" stroke-width="1.51"/><path d="M80,-275L-152,-158L4,-203Z" fill="#fdfdfd" stroke="#fdfdfd" stroke-width="1.51"/><path d="M-177,235L-257,428L-90,325Z" fill="#ebf4fc" stroke="#ebf4fc" stroke-width="1.51"/><path d="M-280,464L-257,428L-177,235Z" fill="#e3f0fc" stroke="#e3f0fc" stroke-width="1.51"/><path d="M-257,428L-280,464L-42,464Z" fill="#d7ebfc" stroke="#d7ebfc" stroke-width="1.51"/><path d="M-152,-158L-280,464L-177,235Z" fill="#fbfbfb" stroke="#fbfbfb" stroke-width="1.51"/><path d="M-254,714L-57,970L36,674Z" fill="#eaf0fb" stroke="#eaf0fb" stroke-width="1.51"/><path d="M-280,464L-254,714L-42,464Z" fill="#d7e8fa" stroke="#d7e8fa" stroke-width="1.51"/><path d="M1528,1051L1694,1166L1577,851Z" fill="#ffffff" stroke="#ffffff" stroke-width="1.51"/><path d="M1653,808L1694,1166L1729,558Z" fill="#f5f8fe" stroke="#f5f8fe" stroke-width="1.51"/><path d="M987,1139L1694,1166L1312,1073Z" fill="#f3f7fd" stroke="#f3f7fd" stroke-width="1.51"/><path d="M541,1124L1694,1166L987,1139Z" fill="#d7e5f8" stroke="#d7e5f8" stroke-width="1.51"/><path d="M-224,1049L-51,1098L-57,970Z" fill="#fefefe" stroke="#fefefe" stroke-width="1.51"/><path d="M-57,970L-51,1098L175,1066Z" fill="#fefefe" stroke="#fefefe" stroke-width="1.51"/><path d="M175,1066L-51,1098L391,1107Z" fill="#fdfdfd" stroke="#fdfdfd" stroke-width="1.51"/><path d="M391,1107L-51,1098L541,1124Z" fill="#fcfcfc" stroke="#fcfcfc" stroke-width="1.51"/><path d="M-254,714L-281,907L-57,970Z" fill="#f8f9fd" stroke="#f8f9fd" stroke-width="1.51"/><path d="M-280,464L-281,907L-254,714Z" fill="#dae6f8" stroke="#dae6f8" stroke-width="1.51"/><path d="M-281,907L-224,1049L-57,970Z" fill="#fefefe" stroke="#fefefe" stroke-width="1.51"/></svg>