<svg xmlns="http://www.w3.org/2000/svg" width="1440" height="900"><path d="M783,520L652,516L764,579Z" fill="#115890" stroke="#115890" stroke-width="1.51"/><path d="M652,516L685,627L764,579Z" fill="#105a92" stroke="#105a92" stroke-width="1.51"/><path d="M783,520L676,408L652,516Z" fill="#0f5388" stroke="#0f5388" stroke-width="1.51"/><path d="M676,408L585,475L652,516Z" fill="#0d4f81" stroke="#0d4f81" stroke-width="1.51"/><path d="M652,516L586,610L685,627Z" fill="#10588f" stroke="#10588f" stroke-width="1.51"/><path d="M585,475L586,610L652,516Z" fill="#0f5387" stroke="#0f5387" stroke-width="1.51"/><path d="M783,520L765,378L676,408Z" fill="#0f5185" stroke="#0f5185" stroke-width="1.51"/><path d="M783,520L858,389L765,378Z" fill="#0f5489" stroke="#0f5489" stroke-width="1.51"/><path d="M877,622L883,499L783,520Z" fill="#125e9a" stroke="#125e9a" stroke-width="1.51"/><path d="M688,308L592,416L676,408Z" fill="#0d4978" stroke="#0d4978" stroke-width="1.51"/><path d="M676,408L592,416L585,475Z" fill="#0d4b7c" stroke="#0d4b7c" stroke-width="1.51"/><path d="M764,579L877,622L783,520Z" fill="#125e9a" stroke="#125e9a" stroke-width="1.51"/><path d="M780,708L877,622L764,579Z" fill="#1363a1" stroke="#1363a1" stroke-width="1.51"/><path d="M685,627L780,708L764,579Z" fill="#12609d" stroke="#12609d" stroke-width="1.51"/><path d="M675,722L780,708L685,627Z" fill="#1362a1" stroke="#1362a1" stroke-width="1.51"/><path d="M567,707L675,722L685,627Z" fill="#125f9b" stroke="#125f9b" stroke-width="1.51"/><path d="M883,499L858,389L783,520Z" fill="#105890" stroke="#105890" stroke-width="1.51"/><path d="M765,378L688,308L676,408Z" fill="#0c4b7b" stroke="#0c4b7b" stroke-width="1.51"/><path d="M846,275L747,311L765,378Z" fill="#0d4b7c" stroke="#0d4b7c" stroke-width="1.51"/><path d="M747,311L688,308L765,378Z" fill="#0c4a79" stroke="#0c4a79" stroke-width="1.51"/><path d="M586,610L567,707L685,627Z" fill="#115b94" stroke="#115b94" stroke-width="1.51"/><path d="M479,709L567,707L586,610Z" fill="#115a93" stroke="#115a93" stroke-width="1.51"/><path d="M780,708L882,702L877,622Z" fill="#1568a9" stroke="#1568a9" stroke-width="1.51"/><path d="M986,609L979,493L883,499Z" fill="#1362a0" stroke="#1362a0" stroke-width="1.51"/><path d="M891,789L882,702L780,708Z" fill="#166cb1" stroke="#166cb1" stroke-width="1.51"/><path d="M585,475L471,580L586,610Z" fill="#0e5185" stroke="#0e5185" stroke-width="1.51"/><path d="M493,388L479,493L585,475Z" fill="#0c4977" stroke="#0c4977" stroke-width="1.51"/><path d="M493,388L585,475L592,416Z" fill="#0c4877" stroke="#0c4877" stroke-width="1.51"/><path d="M479,493L471,580L585,475Z" fill="#0d4d7e" stroke="#0d4d7e" stroke-width="1.51"/><path d="M883,499L986,386L858,389Z" fill="#105890" stroke="#105890" stroke-width="1.51"/><path d="M986,609L883,499L877,622Z" fill="#1463a2" stroke="#1463a2" stroke-width="1.51"/><path d="M551,290L493,388L592,416Z" fill="#0b436f" stroke="#0b436f" stroke-width="1.51"/><path d="M675,722L761,806L780,708Z" fill="#1468a9" stroke="#1468a9" stroke-width="1.51"/><path d="M665,807L761,806L675,722Z" fill="#1569ab" stroke="#1569ab" stroke-width="1.51"/><path d="M957,677L986,609L877,622Z" fill="#1569ab" stroke="#1569ab" stroke-width="1.51"/><path d="M567,707L665,807L675,722Z" fill="#1363a2" stroke="#1363a2" stroke-width="1.51"/><path d="M882,702L957,677L877,622Z" fill="#156aad" stroke="#156aad" stroke-width="1.51"/><path d="M968,783L957,677L882,702Z" fill="#166fb5" stroke="#166fb5" stroke-width="1.51"/><path d="M858,389L846,275L765,378Z" fill="#0d4f81" stroke="#0d4f81" stroke-width="1.51"/><path d="M747,311L784,196L688,308Z" fill="#0b4673" stroke="#0b4673" stroke-width="1.51"/><path d="M957,274L846,275L858,389Z" fill="#0e4f82" stroke="#0e4f82" stroke-width="1.51"/><path d="M688,308L551,290L592,416Z" fill="#0b4571" stroke="#0b4571" stroke-width="1.51"/><path d="M565,211L551,290L688,308Z" fill="#0a3f69" stroke="#0a3f69" stroke-width="1.51"/><path d="M471,580L479,709L586,610Z" fill="#0f558c" stroke="#0f558c" stroke-width="1.51"/><path d="M567,707L571,821L665,807Z" fill="#1464a3" stroke="#1464a3" stroke-width="1.51"/><path d="M979,493L986,386L883,499Z" fill="#115d97" stroke="#115d97" stroke-width="1.51"/><path d="M1089,410L986,386L979,493Z" fill="#125e99" stroke="#125e99" stroke-width="1.51"/><path d="M761,806L891,789L780,708Z" fill="#166db2" stroke="#166db2" stroke-width="1.51"/><path d="M493,388L389,414L479,493Z" fill="#0b4470" stroke="#0b4470" stroke-width="1.51"/><path d="M479,493L369,585L471,580Z" fill="#0d4c7d" stroke="#0d4c7d" stroke-width="1.51"/><path d="M551,290L480,311L493,388Z" fill="#094069" stroke="#094069" stroke-width="1.51"/><path d="M493,801L571,821L567,707Z" fill="#13619f" stroke="#13619f" stroke-width="1.51"/><path d="M665,807L654,879L761,806Z" fill="#166cb0" stroke="#166cb0" stroke-width="1.51"/><path d="M846,275L784,196L747,311Z" fill="#0b4775" stroke="#0b4775" stroke-width="1.51"/><path d="M551,290L464,207L480,311Z" fill="#083b61" stroke="#083b61" stroke-width="1.51"/><path d="M869,198L784,196L846,275Z" fill="#0b4674" stroke="#0b4674" stroke-width="1.51"/><path d="M480,311L389,414L493,388Z" fill="#09406a" stroke="#09406a" stroke-width="1.51"/><path d="M471,580L369,585L479,709Z" fill="#0e5186" stroke="#0e5186" stroke-width="1.51"/><path d="M386,825L493,801L479,709Z" fill="#125d98" stroke="#125d98" stroke-width="1.51"/><path d="M479,709L493,801L567,707Z" fill="#115d98" stroke="#115d98" stroke-width="1.51"/><path d="M986,609L1067,505L979,493Z" fill="#1465a4" stroke="#1465a4" stroke-width="1.51"/><path d="M1070,611L1067,505L986,609Z" fill="#1569ac" stroke="#1569ac" stroke-width="1.51"/><path d="M1070,611L986,609L1073,701Z" fill="#176eb3" stroke="#176eb3" stroke-width="1.51"/><path d="M986,386L957,274L858,389Z" fill="#0f548a" stroke="#0f548a" stroke-width="1.51"/><path d="M1047,283L957,274L986,386Z" fill="#0f548a" stroke="#0f548a" stroke-width="1.51"/><path d="M348,488L369,585L479,493Z" fill="#0c4977" stroke="#0c4977" stroke-width="1.51"/><path d="M594,923L654,879L571,821Z" fill="#166baf" stroke="#166baf" stroke-width="1.51"/><path d="M571,821L654,879L665,807Z" fill="#156aac" stroke="#156aac" stroke-width="1.51"/><path d="M761,806L848,893L891,789Z" fill="#1773bb" stroke="#1773bb" stroke-width="1.51"/><path d="M656,182L565,211L688,308Z" fill="#093f68" stroke="#093f68" stroke-width="1.51"/><path d="M480,311L345,314L389,414Z" fill="#083c64" stroke="#083c64" stroke-width="1.51"/><path d="M784,196L656,182L688,308Z" fill="#0a426c" stroke="#0a426c" stroke-width="1.51"/><path d="M891,789L968,783L882,702Z" fill="#1771b8" stroke="#1771b8" stroke-width="1.51"/><path d="M994,920L968,783L891,789Z" fill="#1979c4" stroke="#1979c4" stroke-width="1.51"/><path d="M1073,701L986,609L957,677Z" fill="#176eb3" stroke="#176eb3" stroke-width="1.51"/><path d="M957,274L869,198L846,275Z" fill="#0d4b7b" stroke="#0d4b7b" stroke-width="1.51"/><path d="M784,196L788,114L656,182Z" fill="#093e67" stroke="#093e67" stroke-width="1.51"/><path d="M389,414L348,488L479,493Z" fill="#0b4571" stroke="#0b4571" stroke-width="1.51"/><path d="M654,879L766,910L761,806Z" fill="#1770b7" stroke="#1770b7" stroke-width="1.51"/><path d="M766,910L848,893L761,806Z" fill="#1874bc" stroke="#1874bc" stroke-width="1.51"/><path d="M1067,505L1089,410L979,493Z" fill="#13629f" stroke="#13629f" stroke-width="1.51"/><path d="M1168,504L1089,410L1067,505Z" fill="#1365a5" stroke="#1365a5" stroke-width="1.51"/><path d="M1080,792L1073,701L968,783Z" fill="#1977c2" stroke="#1977c2" stroke-width="1.51"/><path d="M968,783L1073,701L957,677Z" fill="#1772ba" stroke="#1772ba" stroke-width="1.51"/><path d="M1070,611L1168,504L1067,505Z" fill="#156aac" stroke="#156aac" stroke-width="1.51"/><path d="M369,585L353,714L479,709Z" fill="#0f5387" stroke="#0f5387" stroke-width="1.51"/><path d="M291,586L353,714L369,585Z" fill="#0d4e7e" stroke="#0d4e7e" stroke-width="1.51"/><path d="M654,879L684,991L766,910Z" fill="#1772b9" stroke="#1772b9" stroke-width="1.51"/><path d="M452,922L594,923L571,821Z" fill="#156aac" stroke="#156aac" stroke-width="1.51"/><path d="M452,922L571,821L493,801Z" fill="#1465a4" stroke="#1465a4" stroke-width="1.51"/><path d="M565,211L464,207L551,290Z" fill="#083a60" stroke="#083a60" stroke-width="1.51"/><path d="M389,414L278,420L348,488Z" fill="#0a4069" stroke="#0a4069" stroke-width="1.51"/><path d="M488,112L464,207L565,211Z" fill="#073558" stroke="#073558" stroke-width="1.51"/><path d="M1089,410L1047,283L986,386Z" fill="#115a92" stroke="#115a92" stroke-width="1.51"/><path d="M957,274L989,185L869,198Z" fill="#0d4b7b" stroke="#0d4b7b" stroke-width="1.51"/><path d="M860,97L788,114L869,198Z" fill="#0a416b" stroke="#0a416b" stroke-width="1.51"/><path d="M869,198L788,114L784,196Z" fill="#0a426c" stroke="#0a426c" stroke-width="1.51"/><path d="M656,182L553,82L565,211Z" fill="#08385c" stroke="#08385c" stroke-width="1.51"/><path d="M348,488L291,586L369,585Z" fill="#0c4876" stroke="#0c4876" stroke-width="1.51"/><path d="M265,490L291,586L348,488Z" fill="#0a4470" stroke="#0a4470" stroke-width="1.51"/><path d="M464,207L345,314L480,311Z" fill="#08385e" stroke="#08385e" stroke-width="1.51"/><path d="M1047,283L989,185L957,274Z" fill="#0e4f82" stroke="#0e4f82" stroke-width="1.51"/><path d="M353,714L386,825L479,709Z" fill="#115991" stroke="#115991" stroke-width="1.51"/><path d="M290,822L386,825L353,714Z" fill="#105991" stroke="#105991" stroke-width="1.51"/><path d="M1190,618L1168,504L1070,611Z" fill="#166eb3" stroke="#166eb3" stroke-width="1.51"/><path d="M1063,890L1080,792L968,783Z" fill="#1a7cc9" stroke="#1a7cc9" stroke-width="1.51"/><path d="M788,114L657,86L656,182Z" fill="#083a60" stroke="#083a60" stroke-width="1.51"/><path d="M1089,410L1155,293L1047,283Z" fill="#115992" stroke="#115992" stroke-width="1.51"/><path d="M1148,684L1070,611L1073,701Z" fill="#1772ba" stroke="#1772ba" stroke-width="1.51"/><path d="M345,314L278,420L389,414Z" fill="#093c63" stroke="#093c63" stroke-width="1.51"/><path d="M278,420L265,490L348,488Z" fill="#09406a" stroke="#09406a" stroke-width="1.51"/><path d="M1080,792L1148,684L1073,701Z" fill="#1978c2" stroke="#1978c2" stroke-width="1.51"/><path d="M788,114L768,-9L657,86Z" fill="#08375c" stroke="#08375c" stroke-width="1.51"/><path d="M960,101L860,97L869,198Z" fill="#0a436e" stroke="#0a436e" stroke-width="1.51"/><path d="M594,923L684,991L654,879Z" fill="#176fb5" stroke="#176fb5" stroke-width="1.51"/><path d="M766,910L768,997L848,893Z" fill="#1876c0" stroke="#1876c0" stroke-width="1.51"/><path d="M848,893L994,920L891,789Z" fill="#197ac5" stroke="#197ac5" stroke-width="1.51"/><path d="M553,982L684,991L594,923Z" fill="#166eb2" stroke="#166eb2" stroke-width="1.51"/><path d="M684,991L768,997L766,910Z" fill="#1874bc" stroke="#1874bc" stroke-width="1.51"/><path d="M184,585L279,702L291,586Z" fill="#0c4978" stroke="#0c4978" stroke-width="1.51"/><path d="M291,586L279,702L353,714Z" fill="#0d4f81" stroke="#0d4f81" stroke-width="1.51"/><path d="M357,888L452,922L386,825Z" fill="#1363a0" stroke="#1363a0" stroke-width="1.51"/><path d="M386,825L452,922L493,801Z" fill="#1362a0" stroke="#1362a0" stroke-width="1.51"/><path d="M953,987L994,920L848,893Z" fill="#1a7dcb" stroke="#1a7dcb" stroke-width="1.51"/><path d="M464,207L346,221L345,314Z" fill="#073458" stroke="#073458" stroke-width="1.51"/><path d="M553,82L488,112L565,211Z" fill="#073456" stroke="#073456" stroke-width="1.51"/><path d="M657,86L553,82L656,182Z" fill="#07365a" stroke="#07365a" stroke-width="1.51"/><path d="M452,922L553,982L594,923Z" fill="#156aac" stroke="#156aac" stroke-width="1.51"/><path d="M684,991L749,1092L768,997Z" fill="#1874bc" stroke="#1874bc" stroke-width="1.51"/><path d="M1251,702L1190,618L1148,684Z" fill="#1978c3" stroke="#1978c3" stroke-width="1.51"/><path d="M1148,684L1190,618L1070,611Z" fill="#1772ba" stroke="#1772ba" stroke-width="1.51"/><path d="M345,314L276,315L278,420Z" fill="#08385d" stroke="#08385d" stroke-width="1.51"/><path d="M367,114L346,221L464,207Z" fill="#063151" stroke="#063151" stroke-width="1.51"/><path d="M1168,504L1178,383L1089,410Z" fill="#1364a2" stroke="#1364a2" stroke-width="1.51"/><path d="M1047,283L1052,181L989,185Z" fill="#0d4e81" stroke="#0d4e81" stroke-width="1.51"/><path d="M1289,425L1178,383L1168,504Z" fill="#1468a8" stroke="#1468a8" stroke-width="1.51"/><path d="M989,185L960,101L869,198Z" fill="#0c4775" stroke="#0c4775" stroke-width="1.51"/><path d="M1156,182L1052,181L1047,283Z" fill="#0e5185" stroke="#0e5185" stroke-width="1.51"/><path d="M346,221L276,315L345,314Z" fill="#073457" stroke="#073457" stroke-width="1.51"/><path d="M150,521L184,585L265,490Z" fill="#0a406a" stroke="#0a406a" stroke-width="1.51"/><path d="M1055,107L960,101L989,185Z" fill="#0c4775" stroke="#0c4775" stroke-width="1.51"/><path d="M866,8L768,-9L788,114Z" fill="#08395e" stroke="#08395e" stroke-width="1.51"/><path d="M768,997L881,999L848,893Z" fill="#1978c3" stroke="#1978c3" stroke-width="1.51"/><path d="M1066,986L1063,890L994,920Z" fill="#1c82d4" stroke="#1c82d4" stroke-width="1.51"/><path d="M994,920L1063,890L968,783Z" fill="#1a7ecd" stroke="#1a7ecd" stroke-width="1.51"/><path d="M1080,792L1163,802L1148,684Z" fill="#1a7cc9" stroke="#1a7cc9" stroke-width="1.51"/><path d="M1178,383L1155,293L1089,410Z" fill="#125e9a" stroke="#125e9a" stroke-width="1.51"/><path d="M290,822L357,888L386,825Z" fill="#125d98" stroke="#125d98" stroke-width="1.51"/><path d="M452,922L473,982L553,982Z" fill="#1568aa" stroke="#1568aa" stroke-width="1.51"/><path d="M357,1030L473,982L452,922Z" fill="#1465a5" stroke="#1465a5" stroke-width="1.51"/><path d="M553,982L681,1085L684,991Z" fill="#176fb5" stroke="#176fb5" stroke-width="1.51"/><path d="M881,999L953,987L848,893Z" fill="#1a7bc8" stroke="#1a7bc8" stroke-width="1.51"/><path d="M279,702L290,822L353,714Z" fill="#0f548a" stroke="#0f548a" stroke-width="1.51"/><path d="M1155,922L1163,802L1063,890Z" fill="#1c84d7" stroke="#1c84d7" stroke-width="1.51"/><path d="M1063,890L1163,802L1080,792Z" fill="#1b80cf" stroke="#1b80cf" stroke-width="1.51"/><path d="M265,490L184,585L291,586Z" fill="#0b4470" stroke="#0b4470" stroke-width="1.51"/><path d="M279,702L150,799L290,822Z" fill="#0f5388" stroke="#0f5388" stroke-width="1.51"/><path d="M150,521L265,490L150,416Z" fill="#093c63" stroke="#093c63" stroke-width="1.51"/><path d="M1052,181L1055,107L989,185Z" fill="#0d4b7a" stroke="#0d4b7a" stroke-width="1.51"/><path d="M1156,182L1055,107L1052,181Z" fill="#0e4d7e" stroke="#0e4d7e" stroke-width="1.51"/><path d="M866,8L860,97L960,101Z" fill="#093e67" stroke="#093e67" stroke-width="1.51"/><path d="M866,8L788,114L860,97Z" fill="#093c64" stroke="#093c64" stroke-width="1.51"/><path d="M657,86L588,-12L553,82Z" fill="#073151" stroke="#073151" stroke-width="1.51"/><path d="M995,-12L866,8L960,101Z" fill="#093e66" stroke="#093e66" stroke-width="1.51"/><path d="M768,-9L658,-10L657,86Z" fill="#063355" stroke="#063355" stroke-width="1.51"/><path d="M481,-7L367,114L488,112Z" fill="#052c49" stroke="#052c49" stroke-width="1.51"/><path d="M488,112L367,114L464,207Z" fill="#063051" stroke="#063051" stroke-width="1.51"/><path d="M346,221L250,200L276,315Z" fill="#063151" stroke="#063151" stroke-width="1.51"/><path d="M481,-7L488,112L553,82Z" fill="#062e4d" stroke="#062e4d" stroke-width="1.51"/><path d="M578,1115L681,1085L553,982Z" fill="#166db2" stroke="#166db2" stroke-width="1.51"/><path d="M768,997L889,1102L881,999Z" fill="#1979c5" stroke="#1979c5" stroke-width="1.51"/><path d="M881,999L949,1104L953,987Z" fill="#1a7dcb" stroke="#1a7dcb" stroke-width="1.51"/><path d="M658,-10L588,-12L657,86Z" fill="#063150" stroke="#063150" stroke-width="1.51"/><path d="M655,-101L588,-12L658,-10Z" fill="#052f4e" stroke="#052f4e" stroke-width="1.51"/><path d="M1190,618L1283,504L1168,504Z" fill="#166fb5" stroke="#166fb5" stroke-width="1.51"/><path d="M1163,802L1251,702L1148,684Z" fill="#1a7cc9" stroke="#1a7cc9" stroke-width="1.51"/><path d="M1155,293L1156,182L1047,283Z" fill="#10558c" stroke="#10558c" stroke-width="1.51"/><path d="M1273,185L1156,182L1155,293Z" fill="#10578d" stroke="#10578d" stroke-width="1.51"/><path d="M1275,317L1155,293L1178,383Z" fill="#125f9b" stroke="#125f9b" stroke-width="1.51"/><path d="M681,1085L749,1092L684,991Z" fill="#1772b9" stroke="#1772b9" stroke-width="1.51"/><path d="M1251,702L1276,617L1190,618Z" fill="#1978c3" stroke="#1978c3" stroke-width="1.51"/><path d="M1276,617L1283,504L1190,618Z" fill="#1873bc" stroke="#1873bc" stroke-width="1.51"/><path d="M150,416L265,490L278,420Z" fill="#083b63" stroke="#083b63" stroke-width="1.51"/><path d="M184,585L157,698L279,702Z" fill="#0c4a79" stroke="#0c4a79" stroke-width="1.51"/><path d="M150,416L278,420L276,315Z" fill="#07385c" stroke="#07385c" stroke-width="1.51"/><path d="M367,114L250,200L346,221Z" fill="#052d4c" stroke="#052d4c" stroke-width="1.51"/><path d="M953,987L1066,986L994,920Z" fill="#1b81d0" stroke="#1b81d0" stroke-width="1.51"/><path d="M1163,802L1264,811L1251,702Z" fill="#1c81d2" stroke="#1c81d2" stroke-width="1.51"/><path d="M1070,1080L1066,986L953,987Z" fill="#1b82d3" stroke="#1b82d3" stroke-width="1.51"/><path d="M176,279L150,416L276,315Z" fill="#073355" stroke="#073355" stroke-width="1.51"/><path d="M1283,504L1289,425L1168,504Z" fill="#166caf" stroke="#166caf" stroke-width="1.51"/><path d="M1365,516L1289,425L1283,504Z" fill="#176fb5" stroke="#176fb5" stroke-width="1.51"/><path d="M84,579L157,698L184,585Z" fill="#0a4470" stroke="#0a4470" stroke-width="1.51"/><path d="M290,822L267,905L357,888Z" fill="#115d99" stroke="#115d99" stroke-width="1.51"/><path d="M162,877L267,905L290,822Z" fill="#115a93" stroke="#115a93" stroke-width="1.51"/><path d="M357,888L357,1030L452,922Z" fill="#1363a2" stroke="#1363a2" stroke-width="1.51"/><path d="M472,1113L578,1115L553,982Z" fill="#156aac" stroke="#156aac" stroke-width="1.51"/><path d="M1066,986L1155,922L1063,890Z" fill="#1c85d8" stroke="#1c85d8" stroke-width="1.51"/><path d="M367,114L255,95L250,200Z" fill="#042a46" stroke="#042a46" stroke-width="1.51"/><path d="M588,-12L481,-7L553,82Z" fill="#052d4a" stroke="#052d4a" stroke-width="1.51"/><path d="M749,1092L889,1102L768,997Z" fill="#1977c1" stroke="#1977c1" stroke-width="1.51"/><path d="M250,200L176,279L276,315Z" fill="#063050" stroke="#063050" stroke-width="1.51"/><path d="M1289,425L1275,317L1178,383Z" fill="#1464a4" stroke="#1464a4" stroke-width="1.51"/><path d="M681,1085L578,1115L749,1092Z" fill="#1770b7" stroke="#1770b7" stroke-width="1.51"/><path d="M749,1092L578,1115L889,1102Z" fill="#1874bc" stroke="#1874bc" stroke-width="1.51"/><path d="M472,1113L553,982L473,982Z" fill="#1568aa" stroke="#1568aa" stroke-width="1.51"/><path d="M1055,107L995,-12L960,101Z" fill="#0b436e" stroke="#0b436e" stroke-width="1.51"/><path d="M778,-125L655,-101L768,-9Z" fill="#073355" stroke="#073355" stroke-width="1.51"/><path d="M768,-9L655,-101L658,-10Z" fill="#063152" stroke="#063152" stroke-width="1.51"/><path d="M1095,-25L995,-12L1055,107Z" fill="#0a426c" stroke="#0a426c" stroke-width="1.51"/><path d="M1153,80L1055,107L1156,182Z" fill="#0d4c7d" stroke="#0d4c7d" stroke-width="1.51"/><path d="M1155,922L1264,811L1163,802Z" fill="#1c85d8" stroke="#1c85d8" stroke-width="1.51"/><path d="M1251,702L1357,726L1276,617Z" fill="#1a7ecc" stroke="#1a7ecc" stroke-width="1.51"/><path d="M1276,617L1365,516L1283,504Z" fill="#1774bc" stroke="#1774bc" stroke-width="1.51"/><path d="M267,905L357,1030L357,888Z" fill="#13619e" stroke="#13619e" stroke-width="1.51"/><path d="M1066,986L1184,1012L1155,922Z" fill="#1d87db" stroke="#1d87db" stroke-width="1.51"/><path d="M889,1102L949,1104L881,999Z" fill="#1a7cc9" stroke="#1a7cc9" stroke-width="1.51"/><path d="M578,1115L949,1104L889,1102Z" fill="#1977c1" stroke="#1977c1" stroke-width="1.51"/><path d="M267,905L247,978L357,1030Z" fill="#125f9b" stroke="#125f9b" stroke-width="1.51"/><path d="M157,698L150,799L279,702Z" fill="#0e4e81" stroke="#0e4e81" stroke-width="1.51"/><path d="M78,699L150,799L157,698Z" fill="#0d4c7b" stroke="#0d4c7b" stroke-width="1.51"/><path d="M1273,185L1153,80L1156,182Z" fill="#0e5285" stroke="#0e5285" stroke-width="1.51"/><path d="M372,1088L472,1113L473,982Z" fill="#1466a5" stroke="#1466a5" stroke-width="1.51"/><path d="M150,521L84,579L184,585Z" fill="#09406a" stroke="#09406a" stroke-width="1.51"/><path d="M81,479L84,579L150,521Z" fill="#093c63" stroke="#093c63" stroke-width="1.51"/><path d="M81,479L150,521L150,416Z" fill="#083a5f" stroke="#083a5f" stroke-width="1.51"/><path d="M588,-12L484,-115L481,-7Z" fill="#052a47" stroke="#052a47" stroke-width="1.51"/><path d="M887,-105L768,-9L866,8Z" fill="#07375c" stroke="#07375c" stroke-width="1.51"/><path d="M361,3L367,114L481,-7Z" fill="#042843" stroke="#042843" stroke-width="1.51"/><path d="M361,3L255,95L367,114Z" fill="#042742" stroke="#042742" stroke-width="1.51"/><path d="M250,200L170,189L176,279Z" fill="#052b49" stroke="#052b49" stroke-width="1.51"/><path d="M384,-81L361,3L481,-7Z" fill="#042640" stroke="#042640" stroke-width="1.51"/><path d="M52,379L150,416L65,294Z" fill="#063051" stroke="#063051" stroke-width="1.51"/><path d="M52,379L81,479L150,416Z" fill="#073557" stroke="#073557" stroke-width="1.51"/><path d="M255,95L170,189L250,200Z" fill="#042844" stroke="#042844" stroke-width="1.51"/><path d="M1289,425L1381,416L1275,317Z" fill="#1568aa" stroke="#1568aa" stroke-width="1.51"/><path d="M1388,581L1365,516L1276,617Z" fill="#1877c2" stroke="#1877c2" stroke-width="1.51"/><path d="M162,877L247,978L267,905Z" fill="#115b96" stroke="#115b96" stroke-width="1.51"/><path d="M357,1030L372,1088L473,982Z" fill="#1364a3" stroke="#1364a3" stroke-width="1.51"/><path d="M949,1104L1070,1080L953,987Z" fill="#1b80cf" stroke="#1b80cf" stroke-width="1.51"/><path d="M1155,922L1293,904L1264,811Z" fill="#1e8ae0" stroke="#1e8ae0" stroke-width="1.51"/><path d="M150,799L162,877L290,822Z" fill="#10558c" stroke="#10558c" stroke-width="1.51"/><path d="M64,789L162,877L150,799Z" fill="#0f5285" stroke="#0f5285" stroke-width="1.51"/><path d="M291,1121L372,1088L357,1030Z" fill="#13619e" stroke="#13619e" stroke-width="1.51"/><path d="M1275,317L1273,185L1155,293Z" fill="#125c95" stroke="#125c95" stroke-width="1.51"/><path d="M1396,290L1273,185L1275,317Z" fill="#135f9b" stroke="#135f9b" stroke-width="1.51"/><path d="M952,-94L887,-105L866,8Z" fill="#083a60" stroke="#083a60" stroke-width="1.51"/><path d="M952,-94L866,8L995,-12Z" fill="#093b62" stroke="#093b62" stroke-width="1.51"/><path d="M887,-105L778,-125L768,-9Z" fill="#07365a" stroke="#07365a" stroke-width="1.51"/><path d="M84,579L78,699L157,698Z" fill="#0b4572" stroke="#0b4572" stroke-width="1.51"/><path d="M-50,578L78,699L84,579Z" fill="#093f68" stroke="#093f68" stroke-width="1.51"/><path d="M1047,-84L952,-94L995,-12Z" fill="#093e66" stroke="#093e66" stroke-width="1.51"/><path d="M887,-105L1194,-126L778,-125Z" fill="#093c64" stroke="#093c64" stroke-width="1.51"/><path d="M1264,811L1357,726L1251,702Z" fill="#1b82d3" stroke="#1b82d3" stroke-width="1.51"/><path d="M1374,818L1357,726L1264,811Z" fill="#1d87dc" stroke="#1d87dc" stroke-width="1.51"/><path d="M1070,1080L1184,1012L1066,986Z" fill="#1c85d9" stroke="#1c85d9" stroke-width="1.51"/><path d="M1153,80L1095,-25L1055,107Z" fill="#0c4774" stroke="#0c4774" stroke-width="1.51"/><path d="M1185,2L1095,-25L1153,80Z" fill="#0b4673" stroke="#0b4673" stroke-width="1.51"/><path d="M1357,726L1388,581L1276,617Z" fill="#1a7dcb" stroke="#1a7dcb" stroke-width="1.51"/><path d="M1365,516L1381,416L1289,425Z" fill="#166fb4" stroke="#166fb4" stroke-width="1.51"/><path d="M1477,503L1381,416L1365,516Z" fill="#1874bc" stroke="#1874bc" stroke-width="1.51"/><path d="M655,-101L573,-129L588,-12Z" fill="#052e4c" stroke="#052e4c" stroke-width="1.51"/><path d="M778,-125L573,-129L655,-101Z" fill="#063050" stroke="#063050" stroke-width="1.51"/><path d="M81,479L-50,578L84,579Z" fill="#083a61" stroke="#083a61" stroke-width="1.51"/><path d="M65,294L150,416L176,279Z" fill="#063050" stroke="#063050" stroke-width="1.51"/><path d="M1254,984L1293,904L1155,922Z" fill="#1e8ce2" stroke="#1e8ce2" stroke-width="1.51"/><path d="M361,3L270,-29L255,95Z" fill="#03233b" stroke="#03233b" stroke-width="1.51"/><path d="M573,-129L484,-115L588,-12Z" fill="#052b49" stroke="#052b49" stroke-width="1.51"/><path d="M52,197L65,294L176,279Z" fill="#052a47" stroke="#052a47" stroke-width="1.51"/><path d="M52,197L176,279L170,189Z" fill="#042945" stroke="#042945" stroke-width="1.51"/><path d="M484,-115L384,-81L481,-7Z" fill="#042742" stroke="#042742" stroke-width="1.51"/><path d="M255,95L141,80L170,189Z" fill="#04253e" stroke="#04253e" stroke-width="1.51"/><path d="M1095,-25L1047,-84L995,-12Z" fill="#0a406a" stroke="#0a406a" stroke-width="1.51"/><path d="M952,-94L1194,-126L887,-105Z" fill="#093f67" stroke="#093f67" stroke-width="1.51"/><path d="M1194,-126L1047,-84L1095,-25Z" fill="#0a436f" stroke="#0a436f" stroke-width="1.51"/><path d="M-53,690L64,789L78,699Z" fill="#0c4674" stroke="#0c4674" stroke-width="1.51"/><path d="M78,699L64,789L150,799Z" fill="#0d4c7d" stroke="#0d4c7d" stroke-width="1.51"/><path d="M162,877L151,988L247,978Z" fill="#115a93" stroke="#115a93" stroke-width="1.51"/><path d="M1296,1079L1254,984L1184,1012Z" fill="#1e8ce3" stroke="#1e8ce3" stroke-width="1.51"/><path d="M1184,1012L1254,984L1155,922Z" fill="#1e8ae0" stroke="#1e8ae0" stroke-width="1.51"/><path d="M1287,71L1185,2L1153,80Z" fill="#0d4b7b" stroke="#0d4b7b" stroke-width="1.51"/><path d="M1353,892L1264,811L1293,904Z" fill="#1e8ce4" stroke="#1e8ce4" stroke-width="1.51"/><path d="M1353,892L1374,818L1264,811Z" fill="#1e8ce3" stroke="#1e8ce3" stroke-width="1.51"/><path d="M1499,610L1477,503L1388,581Z" fill="#1a7cc9" stroke="#1a7cc9" stroke-width="1.51"/><path d="M384,-81L270,-29L361,3Z" fill="#04233b" stroke="#04233b" stroke-width="1.51"/><path d="M1273,185L1287,71L1153,80Z" fill="#0f5184" stroke="#0f5184" stroke-width="1.51"/><path d="M1381,416L1396,290L1275,317Z" fill="#1466a7" stroke="#1466a7" stroke-width="1.51"/><path d="M1466,297L1396,290L1381,416Z" fill="#1569ab" stroke="#1569ab" stroke-width="1.51"/><path d="M58,910L151,988L162,877Z" fill="#10578f" stroke="#10578f" stroke-width="1.51"/><path d="M247,978L291,1121L357,1030Z" fill="#125f9b" stroke="#125f9b" stroke-width="1.51"/><path d="M372,1088L291,1121L472,1113Z" fill="#1363a1" stroke="#1363a1" stroke-width="1.51"/><path d="M472,1113L291,1121L578,1115Z" fill="#1466a6" stroke="#1466a6" stroke-width="1.51"/><path d="M143,1080L291,1121L247,978Z" fill="#115c96" stroke="#115c96" stroke-width="1.51"/><path d="M1372,1009L1353,892L1293,904Z" fill="#1f91eb" stroke="#1f91eb" stroke-width="1.51"/><path d="M184,-13L141,80L255,95Z" fill="#032137" stroke="#032137" stroke-width="1.51"/><path d="M1353,114L1287,71L1273,185Z" fill="#0f548a" stroke="#0f548a" stroke-width="1.51"/><path d="M1070,1080L1186,1095L1184,1012Z" fill="#1d87dc" stroke="#1d87dc" stroke-width="1.51"/><path d="M1254,984L1372,1009L1293,904Z" fill="#1f8fe8" stroke="#1f8fe8" stroke-width="1.51"/><path d="M949,1104L1186,1095L1070,1080Z" fill="#1c84d6" stroke="#1c84d6" stroke-width="1.51"/><path d="M141,80L52,197L170,189Z" fill="#04243d" stroke="#04243d" stroke-width="1.51"/><path d="M-37,283L-42,401L52,379Z" fill="#052c4a" stroke="#052c4a" stroke-width="1.51"/><path d="M151,988L143,1080L247,978Z" fill="#115a93" stroke="#115a93" stroke-width="1.51"/><path d="M64,789L58,910L162,877Z" fill="#0f5287" stroke="#0f5287" stroke-width="1.51"/><path d="M-15,909L58,910L64,789Z" fill="#0e5184" stroke="#0e5184" stroke-width="1.51"/><path d="M1388,581L1477,503L1365,516Z" fill="#1978c3" stroke="#1978c3" stroke-width="1.51"/><path d="M1480,699L1388,581L1357,726Z" fill="#1b82d3" stroke="#1b82d3" stroke-width="1.51"/><path d="M1480,699L1357,726L1469,798Z" fill="#1d89de" stroke="#1d89de" stroke-width="1.51"/><path d="M1398,184L1353,114L1273,185Z" fill="#115991" stroke="#115991" stroke-width="1.51"/><path d="M1287,71L1300,9L1185,2Z" fill="#0c4b7c" stroke="#0c4b7c" stroke-width="1.51"/><path d="M1398,184L1273,185L1396,290Z" fill="#125e99" stroke="#125e99" stroke-width="1.51"/><path d="M270,-29L184,-13L255,95Z" fill="#032037" stroke="#032037" stroke-width="1.51"/><path d="M141,80L43,103L52,197Z" fill="#032138" stroke="#032138" stroke-width="1.51"/><path d="M243,-91L184,-13L270,-29Z" fill="#031f35" stroke="#031f35" stroke-width="1.51"/><path d="M1449,174L1398,184L1396,290Z" fill="#12609d" stroke="#12609d" stroke-width="1.51"/><path d="M-62,486L-50,578L81,479Z" fill="#07375b" stroke="#07375b" stroke-width="1.51"/><path d="M-42,401L81,479L52,379Z" fill="#063153" stroke="#063153" stroke-width="1.51"/><path d="M-37,283L52,379L65,294Z" fill="#052b48" stroke="#052b48" stroke-width="1.51"/><path d="M-42,401L-62,486L81,479Z" fill="#073355" stroke="#073355" stroke-width="1.51"/><path d="M1469,798L1357,726L1374,818Z" fill="#1e8ae1" stroke="#1e8ae1" stroke-width="1.51"/><path d="M384,-81L243,-91L270,-29Z" fill="#032139" stroke="#032139" stroke-width="1.51"/><path d="M484,-115L243,-91L384,-81Z" fill="#04243d" stroke="#04243d" stroke-width="1.51"/><path d="M151,-108L243,-91L484,-115Z" fill="#032139" stroke="#032139" stroke-width="1.51"/><path d="M1350,11L1287,71L1353,114Z" fill="#0f5185" stroke="#0f5185" stroke-width="1.51"/><path d="M1350,11L1300,9L1287,71Z" fill="#0d4e80" stroke="#0d4e80" stroke-width="1.51"/><path d="M1185,2L1194,-126L1095,-25Z" fill="#0b4572" stroke="#0b4572" stroke-width="1.51"/><path d="M1496,425L1466,297L1381,416Z" fill="#166eb2" stroke="#166eb2" stroke-width="1.51"/><path d="M1398,184L1465,99L1353,114Z" fill="#115a92" stroke="#115a92" stroke-width="1.51"/><path d="M1480,699L1499,610L1388,581Z" fill="#1b81d1" stroke="#1b81d1" stroke-width="1.51"/><path d="M1477,503L1496,425L1381,416Z" fill="#1773ba" stroke="#1773ba" stroke-width="1.51"/><path d="M1561,394L1496,425L1598,518Z" fill="#1773ba" stroke="#1773ba" stroke-width="1.51"/><path d="M-50,578L-53,690L78,699Z" fill="#0a406a" stroke="#0a406a" stroke-width="1.51"/><path d="M-151,617L-53,690L-50,578Z" fill="#093f67" stroke="#093f67" stroke-width="1.51"/><path d="M-60,193L-37,283L52,197Z" fill="#04243d" stroke="#04243d" stroke-width="1.51"/><path d="M52,197L-37,283L65,294Z" fill="#042742" stroke="#042742" stroke-width="1.51"/><path d="M-42,401L-113,379L-62,486Z" fill="#063151" stroke="#063151" stroke-width="1.51"/><path d="M60,995L143,1080L151,988Z" fill="#10578e" stroke="#10578e" stroke-width="1.51"/><path d="M60,995L151,988L58,910Z" fill="#10568c" stroke="#10568c" stroke-width="1.51"/><path d="M1484,881L1469,798L1374,818Z" fill="#1f90ea" stroke="#1f90ea" stroke-width="1.51"/><path d="M1186,1095L1296,1079L1184,1012Z" fill="#1e8be2" stroke="#1e8be2" stroke-width="1.51"/><path d="M1484,881L1374,818L1353,892Z" fill="#2091eb" stroke="#2091eb" stroke-width="1.51"/><path d="M1480,699L1565,691L1499,610Z" fill="#1c84d6" stroke="#1c84d6" stroke-width="1.51"/><path d="M72,-19L43,103L141,80Z" fill="#031d31" stroke="#031d31" stroke-width="1.51"/><path d="M72,-19L141,80L184,-13Z" fill="#031c30" stroke="#031c30" stroke-width="1.51"/><path d="M-15,909L60,995L58,910Z" fill="#0f5388" stroke="#0f5388" stroke-width="1.51"/><path d="M-53,690L-46,790L64,789Z" fill="#0c4775" stroke="#0c4775" stroke-width="1.51"/><path d="M1296,1079L1372,1009L1254,984Z" fill="#1f8fe8" stroke="#1f8fe8" stroke-width="1.51"/><path d="M1265,-80L1194,-126L1185,2Z" fill="#0c4875" stroke="#0c4875" stroke-width="1.51"/><path d="M1047,-84L1194,-126L952,-94Z" fill="#0a416b" stroke="#0a416b" stroke-width="1.51"/><path d="M778,-125L1194,-126L573,-129Z" fill="#08385c" stroke="#08385c" stroke-width="1.51"/><path d="M1300,9L1265,-80L1185,2Z" fill="#0c4978" stroke="#0c4978" stroke-width="1.51"/><path d="M1466,297L1449,174L1396,290Z" fill="#1364a3" stroke="#1364a3" stroke-width="1.51"/><path d="M1564,174L1449,174L1466,297Z" fill="#13619f" stroke="#13619f" stroke-width="1.51"/><path d="M1465,99L1350,11L1353,114Z" fill="#10558a" stroke="#10558a" stroke-width="1.51"/><path d="M1359,-104L1265,-80L1300,9Z" fill="#0d4c7c" stroke="#0d4c7c" stroke-width="1.51"/><path d="M-46,790L-15,909L64,789Z" fill="#0d4d7d" stroke="#0d4d7d" stroke-width="1.51"/><path d="M1372,1009L1484,881L1353,892Z" fill="#2094f0" stroke="#2094f0" stroke-width="1.51"/><path d="M1469,798L1565,691L1480,699Z" fill="#1d88dd" stroke="#1d88dd" stroke-width="1.51"/><path d="M-37,283L-113,379L-42,401Z" fill="#052c4a" stroke="#052c4a" stroke-width="1.51"/><path d="M-62,486L-134,485L-50,578Z" fill="#07375b" stroke="#07375b" stroke-width="1.51"/><path d="M-53,690L-116,811L-46,790Z" fill="#0c4876" stroke="#0c4876" stroke-width="1.51"/><path d="M-145,280L-113,379L-37,283Z" fill="#052946" stroke="#052946" stroke-width="1.51"/><path d="M43,103L-60,193L52,197Z" fill="#032037" stroke="#032037" stroke-width="1.51"/><path d="M-55,72L-60,193L43,103Z" fill="#031d33" stroke="#031d33" stroke-width="1.51"/><path d="M151,-108L72,-19L184,-13Z" fill="#021b2f" stroke="#021b2f" stroke-width="1.51"/><path d="M-113,379L-134,485L-62,486Z" fill="#063354" stroke="#063354" stroke-width="1.51"/><path d="M-46,790L-116,811L-15,909Z" fill="#0d4d7e" stroke="#0d4d7e" stroke-width="1.51"/><path d="M243,-91L151,-108L184,-13Z" fill="#031d32" stroke="#031d32" stroke-width="1.51"/><path d="M573,-129L151,-108L484,-115Z" fill="#042640" stroke="#042640" stroke-width="1.51"/><path d="M1496,425L1561,394L1466,297Z" fill="#166db1" stroke="#166db1" stroke-width="1.51"/><path d="M1598,518L1496,425L1477,503Z" fill="#1875bf" stroke="#1875bf" stroke-width="1.51"/><path d="M1582,594L1477,503L1499,610Z" fill="#1a7cc9" stroke="#1a7cc9" stroke-width="1.51"/><path d="M1482,1123L949,1104L578,1115Z" fill="#1b81d0" stroke="#1b81d0" stroke-width="1.51"/><path d="M1482,1123L1186,1095L949,1104Z" fill="#1e8ae0" stroke="#1e8ae0" stroke-width="1.51"/><path d="M1482,1123L1364,1101L1186,1095Z" fill="#1f91eb" stroke="#1f91eb" stroke-width="1.51"/><path d="M1186,1095L1364,1101L1296,1079Z" fill="#1f8ee6" stroke="#1f8ee6" stroke-width="1.51"/><path d="M1296,1079L1364,1101L1372,1009Z" fill="#1f91eb" stroke="#1f91eb" stroke-width="1.51"/><path d="M1372,1009L1486,1024L1484,881Z" fill="#2196f3" stroke="#2196f3" stroke-width="1.51"/><path d="M1587,825L1565,691L1469,798Z" fill="#1e8ce2" stroke="#1e8ce2" stroke-width="1.51"/><path d="M1350,11L1359,-104L1300,9Z" fill="#0d4d7e" stroke="#0d4d7e" stroke-width="1.51"/><path d="M1449,174L1465,99L1398,184Z" fill="#115d97" stroke="#115d97" stroke-width="1.51"/><path d="M1564,174L1465,99L1449,174Z" fill="#115d97" stroke="#115d97" stroke-width="1.51"/><path d="M-39,1002L58,1090L60,995Z" fill="#0f5387" stroke="#0f5387" stroke-width="1.51"/><path d="M60,995L58,1090L143,1080Z" fill="#10568c" stroke="#10568c" stroke-width="1.51"/><path d="M143,1080L58,1090L291,1121Z" fill="#105991" stroke="#105991" stroke-width="1.51"/><path d="M1565,691L1582,594L1499,610Z" fill="#1b81d1" stroke="#1b81d1" stroke-width="1.51"/><path d="M-134,485L-151,617L-50,578Z" fill="#083a60" stroke="#083a60" stroke-width="1.51"/><path d="M-15,909L-39,1002L60,995Z" fill="#0e5286" stroke="#0e5286" stroke-width="1.51"/><path d="M-162,704L-116,811L-53,690Z" fill="#0b4673" stroke="#0b4673" stroke-width="1.51"/><path d="M1688,603L1598,518L1582,594Z" fill="#1a7cca" stroke="#1a7cca" stroke-width="1.51"/><path d="M1582,594L1598,518L1477,503Z" fill="#1979c6" stroke="#1979c6" stroke-width="1.51"/><path d="M1660,307L1570,309L1561,394Z" fill="#156bad" stroke="#156bad" stroke-width="1.51"/><path d="M1561,394L1570,309L1466,297Z" fill="#156aac" stroke="#156aac" stroke-width="1.51"/><path d="M-115,922L-39,1002L-15,909Z" fill="#0e5286" stroke="#0e5286" stroke-width="1.51"/><path d="M-151,617L-162,704L-53,690Z" fill="#0a416c" stroke="#0a416c" stroke-width="1.51"/><path d="M-116,811L-115,922L-15,909Z" fill="#0e5083" stroke="#0e5083" stroke-width="1.51"/><path d="M-134,485L-145,280L-151,617Z" fill="#073355" stroke="#073355" stroke-width="1.51"/><path d="M-151,617L-145,280L-162,704Z" fill="#08385d" stroke="#08385d" stroke-width="1.51"/><path d="M-113,379L-145,280L-134,485Z" fill="#052e4d" stroke="#052e4d" stroke-width="1.51"/><path d="M-122,207L-145,280L-37,283Z" fill="#042640" stroke="#042640" stroke-width="1.51"/><path d="M-122,207L-37,283L-60,193Z" fill="#04243d" stroke="#04243d" stroke-width="1.51"/><path d="M-23,5L-55,72L43,103Z" fill="#021a2c" stroke="#021a2c" stroke-width="1.51"/><path d="M-23,5L43,103L72,-19Z" fill="#02192c" stroke="#02192c" stroke-width="1.51"/><path d="M-149,94L-122,207L-60,193Z" fill="#032037" stroke="#032037" stroke-width="1.51"/><path d="M1483,-14L1359,-104L1350,11Z" fill="#0e5082" stroke="#0e5082" stroke-width="1.51"/><path d="M1265,-80L1359,-104L1194,-126Z" fill="#0d4a7a" stroke="#0d4a7a" stroke-width="1.51"/><path d="M-55,72L-149,94L-60,193Z" fill="#031d32" stroke="#031d32" stroke-width="1.51"/><path d="M39,-102L-23,5L72,-19Z" fill="#021728" stroke="#021728" stroke-width="1.51"/><path d="M1484,881L1587,825L1469,798Z" fill="#1f91ea" stroke="#1f91ea" stroke-width="1.51"/><path d="M1364,1101L1486,1024L1372,1009Z" fill="#2094f0" stroke="#2094f0" stroke-width="1.51"/><path d="M1560,915L1587,825L1484,881Z" fill="#2194ef" stroke="#2194ef" stroke-width="1.51"/><path d="M1565,691L1663,704L1582,594Z" fill="#1c83d5" stroke="#1c83d5" stroke-width="1.51"/><path d="M1465,99L1483,-14L1350,11Z" fill="#0f5389" stroke="#0f5389" stroke-width="1.51"/><path d="M1570,309L1564,174L1466,297Z" fill="#1364a4" stroke="#1364a4" stroke-width="1.51"/><path d="M1660,199L1564,174L1570,309Z" fill="#1362a0" stroke="#1362a0" stroke-width="1.51"/><path d="M-162,704L-115,922L-116,811Z" fill="#0d4b7c" stroke="#0d4b7c" stroke-width="1.51"/><path d="M1486,1024L1560,915L1484,881Z" fill="#2196f3" stroke="#2196f3" stroke-width="1.51"/><path d="M151,-108L39,-102L72,-19Z" fill="#021a2c" stroke="#021a2c" stroke-width="1.51"/><path d="M1586,92L1483,-14L1465,99Z" fill="#10568c" stroke="#10568c" stroke-width="1.51"/><path d="M1681,805L1663,704L1587,825Z" fill="#1e8ce3" stroke="#1e8ce3" stroke-width="1.51"/><path d="M1587,825L1663,704L1565,691Z" fill="#1d89df" stroke="#1d89df" stroke-width="1.51"/><path d="M1687,400L1660,307L1561,394Z" fill="#166db1" stroke="#166db1" stroke-width="1.51"/><path d="M1672,905L1681,805L1587,825Z" fill="#2091ec" stroke="#2091ec" stroke-width="1.51"/><path d="M1486,1024L1559,1008L1560,915Z" fill="#2196f3" stroke="#2196f3" stroke-width="1.51"/><path d="M1364,1101L1482,1123L1486,1024Z" fill="#2196f3" stroke="#2196f3" stroke-width="1.51"/><path d="M291,1121L1482,1123L578,1115Z" fill="#1876c0" stroke="#1876c0" stroke-width="1.51"/><path d="M1593,1079L1559,1008L1486,1024Z" fill="#2196f3" stroke="#2196f3" stroke-width="1.51"/><path d="M1687,400L1561,394L1598,518Z" fill="#1772b9" stroke="#1772b9" stroke-width="1.51"/><path d="M1564,174L1586,92L1465,99Z" fill="#115a94" stroke="#115a94" stroke-width="1.51"/><path d="M-136,-14L-55,72L-23,5Z" fill="#021829" stroke="#021829" stroke-width="1.51"/><path d="M-136,-14L-149,94L-55,72Z" fill="#02192c" stroke="#02192c" stroke-width="1.51"/><path d="M-122,207L-149,94L-145,280Z" fill="#042239" stroke="#042239" stroke-width="1.51"/><path d="M-145,280L-149,94L-162,704Z" fill="#052d4a" stroke="#052d4a" stroke-width="1.51"/><path d="M1663,704L1688,603L1582,594Z" fill="#1b81d2" stroke="#1b81d2" stroke-width="1.51"/><path d="M1659,105L1586,92L1564,174Z" fill="#115a94" stroke="#115a94" stroke-width="1.51"/><path d="M-117,1102L-52,1130L-39,1002Z" fill="#0e5286" stroke="#0e5286" stroke-width="1.51"/><path d="M-39,1002L-52,1130L58,1090Z" fill="#0e5286" stroke="#0e5286" stroke-width="1.51"/><path d="M58,1090L-52,1130L291,1121Z" fill="#10568d" stroke="#10568d" stroke-width="1.51"/><path d="M291,1121L-52,1130L1482,1123Z" fill="#166cb0" stroke="#166cb0" stroke-width="1.51"/><path d="M1699,492L1687,400L1598,518Z" fill="#1874bd" stroke="#1874bd" stroke-width="1.51"/><path d="M1688,603L1699,492L1598,518Z" fill="#1979c6" stroke="#1979c6" stroke-width="1.51"/><path d="M-115,922L-138,1017L-39,1002Z" fill="#0e5286" stroke="#0e5286" stroke-width="1.51"/><path d="M-162,704L-138,1017L-115,922Z" fill="#0e5083" stroke="#0e5083" stroke-width="1.51"/><path d="M39,-102L-52,-106L-23,5Z" fill="#011627" stroke="#011627" stroke-width="1.51"/><path d="M151,-108L-52,-106L39,-102Z" fill="#021829" stroke="#021829" stroke-width="1.51"/><path d="M573,-129L-52,-106L151,-108Z" fill="#031e34" stroke="#031e34" stroke-width="1.51"/><path d="M1687,400L1660,199L1660,307Z" fill="#1568a9" stroke="#1568a9" stroke-width="1.51"/><path d="M1660,307L1660,199L1570,309Z" fill="#1466a5" stroke="#1466a5" stroke-width="1.51"/><path d="M1688,603L1694,987L1699,492Z" fill="#1c86d9" stroke="#1c86d9" stroke-width="1.51"/><path d="M1663,704L1681,805L1688,603Z" fill="#1d86da" stroke="#1d86da" stroke-width="1.51"/><path d="M1672,905L1587,825L1560,915Z" fill="#2094f0" stroke="#2094f0" stroke-width="1.51"/><path d="M1568,-28L1483,-14L1586,92Z" fill="#0f5387" stroke="#0f5387" stroke-width="1.51"/><path d="M1568,-28L1477,-124L1483,-14Z" fill="#0e5286" stroke="#0e5286" stroke-width="1.51"/><path d="M1483,-14L1477,-124L1359,-104Z" fill="#0e5286" stroke="#0e5286" stroke-width="1.51"/><path d="M1359,-104L1477,-124L1194,-126Z" fill="#0d4d7f" stroke="#0d4d7f" stroke-width="1.51"/><path d="M-138,1017L-117,1102L-39,1002Z" fill="#0e5286" stroke="#0e5286" stroke-width="1.51"/><path d="M-52,-106L-136,-14L-23,5Z" fill="#011627" stroke="#011627" stroke-width="1.51"/><path d="M1700,-24L1568,-28L1586,92Z" fill="#0f5387" stroke="#0f5387" stroke-width="1.51"/><path d="M1559,1008L1672,905L1560,915Z" fill="#2196f3" stroke="#2196f3" stroke-width="1.51"/><path d="M1694,987L1672,905L1559,1008Z" fill="#2196f3" stroke="#2196f3" stroke-width="1.51"/><path d="M1482,1123L1593,1079L1486,1024Z" fill="#2196f3" stroke="#2196f3" stroke-width="1.51"/><path d="M1660,199L1659,105L1564,174Z" fill="#125d98" stroke="#125d98" stroke-width="1.51"/><path d="M1700,-24L1659,105L1660,199Z" fill="#105890" stroke="#105890" stroke-width="1.51"/><path d="M1700,-24L1660,199L1687,400Z" fill="#125f9c" stroke="#125f9c" stroke-width="1.51"/><path d="M-52,-106L-143,-93L-136,-14Z" fill="#011627" stroke="#011627" stroke-width="1.51"/><path d="M-136,-14L-143,-93L-149,94Z" fill="#011627" stroke="#011627" stroke-width="1.51"/><path d="M1593,1079L1694,987L1559,1008Z" fill="#2196f3" stroke="#2196f3" stroke-width="1.51"/><path d="M1672,905L1694,987L1681,805Z" fill="#2196f3" stroke="#2196f3" stroke-width="1.51"/><path d="M1681,805L1694,987L1688,603Z" fill="#1f8ee6" stroke="#1f8ee6" stroke-width="1.51"/><path d="M1692,-116L1576,-123L1568,-28Z" fill="#0e5286" stroke="#0e5286" stroke-width="1.51"/><path d="M1568,-28L1576,-123L1477,-124Z" fill="#0e5286" stroke="#0e5286" stroke-width="1.51"/><path d="M1593,1079L1689,1104L1694,987Z" fill="#2196f3" stroke="#2196f3" stroke-width="1.51"/><path d="M1482,1123L1689,1104L1593,1079Z" fill="#2196f3" stroke="#2196f3" stroke-width="1.51"/><path d="M1659,105L1700,-24L1586,92Z" fill="#10568c" stroke="#10568c" stroke-width="1.51"/><path d="M1699,492L1700,-24L1687,400Z" fill="#1467a8" stroke="#1467a8" stroke-width="1.51"/><path d="M1700,-24L1692,-116L1568,-28Z" fill="#0e5286" stroke="#0e5286" stroke-width="1.51"/></svg>