<?xml version="1.0" encoding="iso-8859-1"?>
<!-- Generator: Adobe Illustrator 21.0.2, SVG Export Plug-In . SVG Version: 6.00 Build 0)  -->
<svg version="1.1" id="Layer_1" xmlns="http://www.w3.org/2000/svg" xmlns:xlink="http://www.w3.org/1999/xlink" x="0px" y="0px"
	 viewBox="0 0 48 48" style="enable-background:new 0 0 48 48;" xml:space="preserve">
<path style="fill:#2196F3;" d="M44,24c0,11.044-8.956,20-20,20S4,35.044,4,24S12.956,4,24,4S44,12.956,44,24z"/>
<path style="fill:#FFFFFF;" d="M30,25.422c0,2.105-0.48,3.727-1.438,4.867S26.258,32,24.516,32c-1.754,0-3.113-0.574-4.074-1.723
	S19,27.512,19,25.422v-2.844c0-2.105,0.477-3.727,1.438-4.867C21.395,16.57,22.746,16,24.496,16c1.746,0,3.102,0.574,4.063,1.723
	S30,20.492,30,22.59V25.422z M26.348,22.117c0-1.121-0.148-1.957-0.445-2.508c-0.293-0.555-0.766-0.828-1.406-0.828
	c-0.629,0-1.086,0.254-1.371,0.77s-0.441,1.289-0.461,2.332v3.977c0,1.164,0.148,2.016,0.441,2.555
	c0.297,0.535,0.766,0.805,1.41,0.805c0.621,0,1.082-0.262,1.375-0.785c0.297-0.523,0.449-1.344,0.457-2.465V22.117z"/>
</svg>
